M48
; DRILL file {KiCad 7.0.10} date Mon 15 Jan 2024 10:33:44 CET
; FORMAT={-:-/ absolute / inch / decimal}
; #@! TF.CreationDate,2024-01-15T10:33:44+01:00
; #@! TF.GenerationSoftware,Kicad,Pcbnew,7.0.10
; #@! TF.FileFunction,Plated,1,2,PTH
FMAT,2
INCH
; #@! TA.AperFunction,Plated,PTH,ComponentDrill
T1C0.0236
; #@! TA.AperFunction,Plated,PTH,ComponentDrill
T2C0.0394
%
G90
G05
T2
X4.4Y-2.5
X4.4Y-2.6
X4.4Y-2.7
X4.4Y-2.8
X4.4Y-2.9
X4.4Y-3.0
X4.4Y-3.1
X4.4Y-3.2
X5.0Y-2.5
X5.0Y-2.6
X5.0Y-2.7
X5.0Y-2.8
X5.0Y-2.9
X5.0Y-3.0
X5.0Y-3.1
X5.0Y-3.2
X5.2Y-2.6
X5.2043Y-2.7
X5.2043Y-2.8
X5.2043Y-2.9
X5.2043Y-3.0
X5.2043Y-3.1
X5.9Y-2.6
X5.9Y-2.7
X5.9Y-2.8
X5.9043Y-2.9
X5.9043Y-3.0
X5.9043Y-3.1
X6.1Y-2.5
X6.1Y-2.6
X6.1Y-2.7
X6.1Y-2.8
X6.1Y-3.0
X6.1Y-3.1
X6.1Y-3.2
X6.7Y-2.5
X6.7Y-2.6
X6.7Y-2.7
X6.7Y-2.8
X6.7Y-3.0
X6.7Y-3.1
X6.7Y-3.2
X6.85Y-2.5
X6.85Y-2.6
X6.85Y-2.7
X6.85Y-2.8
X6.85Y-2.9
X7.45Y-2.5
X7.45Y-2.6
X7.45Y-2.7
X7.45Y-2.8
X7.45Y-2.9
T1
G00X5.3843Y-2.8138
M15
G01X5.3843Y-2.8571
M16
G05
G00X5.3843Y-2.9843
M15
G01X5.3843Y-3.0157
M16
G05
G00X5.7244Y-2.8138
M15
G01X5.7244Y-2.8571
M16
G05
G00X5.7244Y-2.9843
M15
G01X5.7244Y-3.0157
M16
G05
M30
