%TF.GenerationSoftware,KiCad,Pcbnew,7.0.10*%
%TF.CreationDate,2024-01-15T10:33:49+01:00*%
%TF.ProjectId,smd_breadboard,736d645f-6272-4656-9164-626f6172642e,rev?*%
%TF.SameCoordinates,Original*%
%TF.FileFunction,Soldermask,Bot*%
%TF.FilePolarity,Negative*%
%FSLAX46Y46*%
G04 Gerber Fmt 4.6, Leading zero omitted, Abs format (unit mm)*
G04 Created by KiCad (PCBNEW 7.0.10) date 2024-01-15 10:33:49*
%MOMM*%
%LPD*%
G01*
G04 APERTURE LIST*
%ADD10C,1.600000*%
%ADD11O,1.000000X1.800000*%
%ADD12O,1.000000X2.100000*%
%ADD13C,0.650000*%
G04 APERTURE END LIST*
D10*
%TO.C,*%
X132080000Y-66040000D03*
%TD*%
%TO.C,*%
X189230000Y-73660000D03*
%TD*%
%TO.C,*%
X173990000Y-73660000D03*
%TD*%
%TO.C,*%
X189230000Y-68580000D03*
%TD*%
%TO.C,*%
X173990000Y-71120000D03*
%TD*%
%TO.C,*%
X173990000Y-63500000D03*
%TD*%
%TO.C,*%
X189230000Y-66040000D03*
%TD*%
%TO.C,*%
X189230000Y-63500000D03*
%TD*%
%TO.C,*%
X173990000Y-68580000D03*
%TD*%
%TO.C,*%
X189230000Y-71120000D03*
%TD*%
%TO.C,*%
X173990000Y-66040000D03*
%TD*%
%TO.C,*%
X149860000Y-71120000D03*
%TD*%
%TO.C,*%
X149860000Y-66040000D03*
%TD*%
%TO.C,*%
X149860000Y-68580000D03*
%TD*%
%TO.C,*%
X132190000Y-76200000D03*
%TD*%
%TO.C,*%
X149970000Y-76200000D03*
%TD*%
%TO.C,*%
X132190000Y-78740000D03*
%TD*%
%TO.C,*%
X132190000Y-68580000D03*
%TD*%
%TO.C,*%
X132190000Y-73660000D03*
%TD*%
%TO.C,*%
X132190000Y-71120000D03*
%TD*%
%TO.C,*%
X149970000Y-78740000D03*
%TD*%
%TO.C,*%
X149970000Y-73660000D03*
%TD*%
%TO.C,*%
X170180000Y-81280000D03*
%TD*%
%TO.C,*%
X154940000Y-76200000D03*
%TD*%
%TO.C,*%
X170180000Y-78740000D03*
%TD*%
%TO.C,*%
X170180000Y-76200000D03*
%TD*%
%TO.C,*%
X154940000Y-81280000D03*
%TD*%
%TO.C,*%
X154940000Y-78740000D03*
%TD*%
%TO.C,*%
X170180000Y-66040000D03*
%TD*%
%TO.C,*%
X154940000Y-71120000D03*
%TD*%
%TO.C,*%
X170180000Y-63500000D03*
%TD*%
%TO.C,*%
X170180000Y-68580000D03*
%TD*%
%TO.C,*%
X154940000Y-68580000D03*
%TD*%
%TO.C,*%
X170180000Y-71120000D03*
%TD*%
%TO.C,*%
X154940000Y-66040000D03*
%TD*%
%TO.C,*%
X154940000Y-63500000D03*
%TD*%
%TO.C,*%
X127000000Y-81280000D03*
%TD*%
%TO.C,*%
X127000000Y-78740000D03*
%TD*%
%TO.C,*%
X127000000Y-76200000D03*
%TD*%
%TO.C,*%
X127000000Y-73660000D03*
%TD*%
%TO.C,*%
X127000000Y-71120000D03*
%TD*%
%TO.C,*%
X127000000Y-68580000D03*
%TD*%
%TO.C,*%
X127000000Y-66040000D03*
%TD*%
%TO.C,*%
X127000000Y-63500000D03*
%TD*%
%TO.C,*%
X111760000Y-81280000D03*
%TD*%
%TO.C,*%
X111760000Y-78740000D03*
%TD*%
%TO.C,*%
X111760000Y-76200000D03*
%TD*%
%TO.C,*%
X111760000Y-73660000D03*
%TD*%
%TO.C,*%
X111760000Y-71120000D03*
%TD*%
%TO.C,*%
X111760000Y-68580000D03*
%TD*%
%TO.C,*%
X111760000Y-66040000D03*
%TD*%
%TO.C,*%
X111760000Y-63500000D03*
%TD*%
D11*
%TO.C,USB4105-GF-A*%
X145400000Y-76200000D03*
D12*
X145400000Y-72020000D03*
D11*
X136760000Y-76200000D03*
D12*
X136760000Y-72020000D03*
D13*
X143970000Y-72520000D03*
X138190000Y-72520000D03*
%TD*%
M02*
