%TF.GenerationSoftware,KiCad,Pcbnew,7.0.10*%
%TF.CreationDate,2024-02-02T14:05:35+01:00*%
%TF.ProjectId,smd_breadboard,736d645f-6272-4656-9164-626f6172642e,rev?*%
%TF.SameCoordinates,Original*%
%TF.FileFunction,Soldermask,Top*%
%TF.FilePolarity,Negative*%
%FSLAX46Y46*%
G04 Gerber Fmt 4.6, Leading zero omitted, Abs format (unit mm)*
G04 Created by KiCad (PCBNEW 7.0.10) date 2024-02-02 14:05:35*
%MOMM*%
%LPD*%
G01*
G04 APERTURE LIST*
G04 Aperture macros list*
%AMRoundRect*
0 Rectangle with rounded corners*
0 $1 Rounding radius*
0 $2 $3 $4 $5 $6 $7 $8 $9 X,Y pos of 4 corners*
0 Add a 4 corners polygon primitive as box body*
4,1,4,$2,$3,$4,$5,$6,$7,$8,$9,$2,$3,0*
0 Add four circle primitives for the rounded corners*
1,1,$1+$1,$2,$3*
1,1,$1+$1,$4,$5*
1,1,$1+$1,$6,$7*
1,1,$1+$1,$8,$9*
0 Add four rect primitives between the rounded corners*
20,1,$1+$1,$2,$3,$4,$5,0*
20,1,$1+$1,$4,$5,$6,$7,0*
20,1,$1+$1,$6,$7,$8,$9,0*
20,1,$1+$1,$8,$9,$2,$3,0*%
%AMFreePoly0*
4,1,6,0.500000,-0.850000,-0.500000,-0.850000,-0.500000,0.550000,-0.200000,0.850000,0.500000,0.850000,0.500000,-0.850000,0.500000,-0.850000,$1*%
G04 Aperture macros list end*
%ADD10C,1.600000*%
%ADD11C,0.650000*%
%ADD12RoundRect,0.150000X-0.150000X-0.425000X0.150000X-0.425000X0.150000X0.425000X-0.150000X0.425000X0*%
%ADD13RoundRect,0.075000X-0.075000X-0.500000X0.075000X-0.500000X0.075000X0.500000X-0.075000X0.500000X0*%
%ADD14O,1.000000X2.100000*%
%ADD15O,1.000000X1.800000*%
%ADD16RoundRect,0.150000X-0.650000X-0.150000X0.650000X-0.150000X0.650000X0.150000X-0.650000X0.150000X0*%
%ADD17RoundRect,0.237500X0.237500X-0.300000X0.237500X0.300000X-0.237500X0.300000X-0.237500X-0.300000X0*%
%ADD18R,1.200000X0.400000*%
%ADD19RoundRect,0.237500X-0.300000X-0.237500X0.300000X-0.237500X0.300000X0.237500X-0.300000X0.237500X0*%
%ADD20RoundRect,0.237500X0.300000X0.237500X-0.300000X0.237500X-0.300000X-0.237500X0.300000X-0.237500X0*%
%ADD21R,0.550000X0.250000*%
%ADD22FreePoly0,180.000000*%
%ADD23RoundRect,0.150000X0.512500X0.150000X-0.512500X0.150000X-0.512500X-0.150000X0.512500X-0.150000X0*%
G04 APERTURE END LIST*
D10*
%TO.C,*%
X149860000Y-78740000D03*
%TD*%
%TO.C,*%
X132080000Y-78740000D03*
%TD*%
%TO.C,*%
X173990000Y-71120000D03*
%TD*%
%TO.C,*%
X132190000Y-71120000D03*
%TD*%
%TO.C,*%
X132080000Y-63500000D03*
%TD*%
%TO.C,*%
X189230000Y-66040000D03*
%TD*%
%TO.C,*%
X111760000Y-73660000D03*
%TD*%
D11*
%TO.C,USB4105-GF-A*%
X138160000Y-73695000D03*
X143940000Y-73695000D03*
D12*
X137850000Y-72620000D03*
X138650000Y-72620000D03*
D13*
X139800000Y-72620000D03*
X140800000Y-72620000D03*
X141300000Y-72620000D03*
X142300000Y-72620000D03*
D12*
X143450000Y-72620000D03*
X144250000Y-72620000D03*
X144250000Y-72620000D03*
X143450000Y-72620000D03*
D13*
X142800000Y-72620000D03*
X141800000Y-72620000D03*
X140300000Y-72620000D03*
X139300000Y-72620000D03*
D12*
X138650000Y-72620000D03*
X137850000Y-72620000D03*
D14*
X136730000Y-73195000D03*
D15*
X136730000Y-77375000D03*
D14*
X145370000Y-73195000D03*
D15*
X145370000Y-77375000D03*
%TD*%
D10*
%TO.C,*%
X111760000Y-71120000D03*
%TD*%
%TO.C,*%
X154940000Y-78740000D03*
%TD*%
%TO.C,*%
X154940000Y-76200000D03*
%TD*%
D16*
%TO.C,QUAD 8SOIC*%
X158742500Y-65632500D03*
X158742500Y-66902500D03*
X158742500Y-68172500D03*
X158742500Y-69442500D03*
X165942500Y-69442500D03*
X165942500Y-68172500D03*
X165942500Y-66902500D03*
X165942500Y-65632500D03*
%TD*%
D10*
%TO.C,*%
X154940000Y-66040000D03*
%TD*%
D17*
%TO.C,C3*%
X156845000Y-69950500D03*
X156845000Y-68225500D03*
%TD*%
D10*
%TO.C,*%
X127000000Y-63500000D03*
%TD*%
%TO.C,*%
X132190000Y-73660000D03*
%TD*%
%TO.C,*%
X170180000Y-71120000D03*
%TD*%
%TO.C,*%
X149860000Y-66040000D03*
%TD*%
%TO.C,*%
X170180000Y-68580000D03*
%TD*%
%TO.C,*%
X149970000Y-73660000D03*
%TD*%
%TO.C,*%
X154940000Y-71120000D03*
%TD*%
%TO.C,*%
X170180000Y-76200000D03*
%TD*%
%TO.C,*%
X189230000Y-63500000D03*
%TD*%
%TO.C,*%
X132190000Y-76200000D03*
%TD*%
%TO.C,*%
X170180000Y-63500000D03*
%TD*%
%TO.C,*%
X111760000Y-78740000D03*
%TD*%
D18*
%TO.C,16SSOP*%
X116900000Y-70077500D03*
X116900000Y-70712500D03*
X116900000Y-71347500D03*
X116900000Y-71982500D03*
X116900000Y-72617500D03*
X116900000Y-73252500D03*
X116900000Y-73887500D03*
X116900000Y-74522500D03*
X122100000Y-74522500D03*
X122100000Y-73887500D03*
X122100000Y-73252500D03*
X122100000Y-72617500D03*
X122100000Y-71982500D03*
X122100000Y-71347500D03*
X122100000Y-70712500D03*
X122100000Y-70077500D03*
%TD*%
D10*
%TO.C,*%
X154940000Y-81280000D03*
%TD*%
%TO.C,*%
X127000000Y-66040000D03*
%TD*%
%TO.C,*%
X154940000Y-63500000D03*
%TD*%
%TO.C,*%
X149860000Y-63500000D03*
%TD*%
D19*
%TO.C,C3*%
X118263500Y-68199000D03*
X119988500Y-68199000D03*
%TD*%
D10*
%TO.C,*%
X173990000Y-63500000D03*
%TD*%
%TO.C,*%
X149970000Y-76200000D03*
%TD*%
%TO.C,*%
X111760000Y-68580000D03*
%TD*%
%TO.C,*%
X170180000Y-81280000D03*
%TD*%
D20*
%TO.C,C3*%
X180186500Y-64897000D03*
X178461500Y-64897000D03*
%TD*%
D10*
%TO.C,*%
X173990000Y-68580000D03*
%TD*%
%TO.C,*%
X132190000Y-68580000D03*
%TD*%
%TO.C,*%
X149860000Y-68580000D03*
%TD*%
%TO.C,*%
X111760000Y-81280000D03*
%TD*%
%TO.C,*%
X170180000Y-66040000D03*
%TD*%
%TO.C,*%
X111760000Y-63500000D03*
%TD*%
%TO.C,*%
X127000000Y-71120000D03*
%TD*%
D17*
%TO.C,C3*%
X166751000Y-80618500D03*
X166751000Y-78893500D03*
%TD*%
D10*
%TO.C,*%
X189230000Y-73660000D03*
%TD*%
%TO.C,*%
X127000000Y-68580000D03*
%TD*%
%TO.C,*%
X132190000Y-66040000D03*
%TD*%
D21*
%TO.C,SHT30-DIS-B2.5KS*%
X182452500Y-68172500D03*
X182452500Y-67672500D03*
X182452500Y-67172500D03*
X182452500Y-66672500D03*
X180102500Y-66672500D03*
X180102500Y-67172500D03*
X180102500Y-67672500D03*
X180102500Y-68172500D03*
D22*
X181277500Y-67422500D03*
%TD*%
D10*
%TO.C,*%
X127000000Y-76200000D03*
%TD*%
%TO.C,*%
X127000000Y-78740000D03*
%TD*%
D23*
%TO.C,TSOT23-6*%
X163277500Y-79370000D03*
X163277500Y-78420000D03*
X163277500Y-77470000D03*
X161002500Y-77470000D03*
X161002500Y-78420000D03*
X161002500Y-79370000D03*
%TD*%
D10*
%TO.C,*%
X189230000Y-68580000D03*
%TD*%
%TO.C,*%
X173990000Y-73660000D03*
%TD*%
%TO.C,*%
X111760000Y-66040000D03*
%TD*%
%TO.C,*%
X173990000Y-66040000D03*
%TD*%
%TO.C,*%
X149970000Y-71120000D03*
%TD*%
%TO.C,*%
X170180000Y-78740000D03*
%TD*%
%TO.C,*%
X154940000Y-68580000D03*
%TD*%
%TO.C,*%
X189230000Y-71120000D03*
%TD*%
%TO.C,*%
X127000000Y-73660000D03*
%TD*%
%TO.C,*%
X127000000Y-81280000D03*
%TD*%
%TO.C,*%
X111760000Y-76200000D03*
%TD*%
M02*
