%TF.GenerationSoftware,KiCad,Pcbnew,7.0.10*%
%TF.CreationDate,2024-02-02T14:05:28+01:00*%
%TF.ProjectId,smd_breadboard,736d645f-6272-4656-9164-626f6172642e,rev?*%
%TF.SameCoordinates,Original*%
%TF.FileFunction,Drillmap*%
%TF.FilePolarity,Positive*%
%FSLAX45Y45*%
G04 Gerber Fmt 4.5, Leading zero omitted, Abs format (unit mm)*
G04 Created by KiCad (PCBNEW 7.0.10) date 2024-02-02 14:05:28*
%MOMM*%
%LPD*%
G01*
G04 APERTURE LIST*
%ADD10C,0.100000*%
%ADD11C,0.200000*%
G04 APERTURE END LIST*
D10*
X17145000Y-6223000D02*
X15367000Y-6223000D01*
X17272000Y-6223000D02*
X17272000Y-7747000D01*
X17145000Y-7366000D02*
X15367000Y-7366000D01*
X19050000Y-6223000D02*
X17272000Y-6223000D01*
X15367000Y-6223000D02*
X15367000Y-7239000D01*
X17272000Y-7747000D02*
X19050000Y-7747000D01*
X11049000Y-8255000D02*
X11049000Y-6223000D01*
X15367000Y-7366000D02*
X15367000Y-8382000D01*
X15367000Y-7239000D02*
X17145000Y-7239000D01*
X19050000Y-7747000D02*
X19050000Y-6223000D01*
X12827000Y-8255000D02*
X11049000Y-8255000D01*
X11049000Y-6223000D02*
X12827000Y-6223000D01*
X15113000Y-6223000D02*
X13081000Y-6223000D01*
X13081000Y-6223000D02*
X13081000Y-8001000D01*
X15113000Y-8001000D02*
X15113000Y-6223000D01*
X13081000Y-8001000D02*
X15113000Y-8001000D01*
X17145000Y-8382000D02*
X17145000Y-7366000D01*
X17145000Y-7239000D02*
X17145000Y-6223000D01*
X12827000Y-6223000D02*
X12827000Y-8255000D01*
X15367000Y-8382000D02*
X17145000Y-8382000D01*
D11*
D10*
X13643000Y-7289500D02*
X13703000Y-7349500D01*
X13703000Y-7289500D02*
X13643000Y-7349500D01*
X13643000Y-7264500D02*
X13643000Y-7374500D01*
X13643000Y-7374500D02*
G75*
G03*
X13703000Y-7374500I30000J0D01*
G01*
X13703000Y-7374500D02*
X13703000Y-7264500D01*
X13703000Y-7264500D02*
G75*
G03*
X13643000Y-7264500I-30000J0D01*
G01*
X13643000Y-7707500D02*
X13703000Y-7767500D01*
X13703000Y-7707500D02*
X13643000Y-7767500D01*
X13643000Y-7697500D02*
X13643000Y-7777500D01*
X13643000Y-7777500D02*
G75*
G03*
X13703000Y-7777500I30000J0D01*
G01*
X13703000Y-7777500D02*
X13703000Y-7697500D01*
X13703000Y-7697500D02*
G75*
G03*
X13643000Y-7697500I-30000J0D01*
G01*
X14507000Y-7289500D02*
X14567000Y-7349500D01*
X14567000Y-7289500D02*
X14507000Y-7349500D01*
X14507000Y-7264500D02*
X14507000Y-7374500D01*
X14507000Y-7374500D02*
G75*
G03*
X14567000Y-7374500I30000J0D01*
G01*
X14567000Y-7374500D02*
X14567000Y-7264500D01*
X14567000Y-7264500D02*
G75*
G03*
X14507000Y-7264500I-30000J0D01*
G01*
X14507000Y-7707500D02*
X14567000Y-7767500D01*
X14567000Y-7707500D02*
X14507000Y-7767500D01*
X14507000Y-7697500D02*
X14507000Y-7777500D01*
X14507000Y-7777500D02*
G75*
G03*
X14567000Y-7777500I30000J0D01*
G01*
X14567000Y-7777500D02*
X14567000Y-7697500D01*
X14567000Y-7697500D02*
G75*
G03*
X14507000Y-7697500I-30000J0D01*
G01*
X11226000Y-6350000D02*
G75*
G03*
X11126000Y-6350000I-50000J0D01*
G01*
X11126000Y-6350000D02*
G75*
G03*
X11226000Y-6350000I50000J0D01*
G01*
X11226000Y-6604000D02*
G75*
G03*
X11126000Y-6604000I-50000J0D01*
G01*
X11126000Y-6604000D02*
G75*
G03*
X11226000Y-6604000I50000J0D01*
G01*
X11226000Y-6858000D02*
G75*
G03*
X11126000Y-6858000I-50000J0D01*
G01*
X11126000Y-6858000D02*
G75*
G03*
X11226000Y-6858000I50000J0D01*
G01*
X11226000Y-7112000D02*
G75*
G03*
X11126000Y-7112000I-50000J0D01*
G01*
X11126000Y-7112000D02*
G75*
G03*
X11226000Y-7112000I50000J0D01*
G01*
X11226000Y-7366000D02*
G75*
G03*
X11126000Y-7366000I-50000J0D01*
G01*
X11126000Y-7366000D02*
G75*
G03*
X11226000Y-7366000I50000J0D01*
G01*
X11226000Y-7620000D02*
G75*
G03*
X11126000Y-7620000I-50000J0D01*
G01*
X11126000Y-7620000D02*
G75*
G03*
X11226000Y-7620000I50000J0D01*
G01*
X11226000Y-7874000D02*
G75*
G03*
X11126000Y-7874000I-50000J0D01*
G01*
X11126000Y-7874000D02*
G75*
G03*
X11226000Y-7874000I50000J0D01*
G01*
X11226000Y-8128000D02*
G75*
G03*
X11126000Y-8128000I-50000J0D01*
G01*
X11126000Y-8128000D02*
G75*
G03*
X11226000Y-8128000I50000J0D01*
G01*
X12750000Y-6350000D02*
G75*
G03*
X12650000Y-6350000I-50000J0D01*
G01*
X12650000Y-6350000D02*
G75*
G03*
X12750000Y-6350000I50000J0D01*
G01*
X12750000Y-6604000D02*
G75*
G03*
X12650000Y-6604000I-50000J0D01*
G01*
X12650000Y-6604000D02*
G75*
G03*
X12750000Y-6604000I50000J0D01*
G01*
X12750000Y-6858000D02*
G75*
G03*
X12650000Y-6858000I-50000J0D01*
G01*
X12650000Y-6858000D02*
G75*
G03*
X12750000Y-6858000I50000J0D01*
G01*
X12750000Y-7112000D02*
G75*
G03*
X12650000Y-7112000I-50000J0D01*
G01*
X12650000Y-7112000D02*
G75*
G03*
X12750000Y-7112000I50000J0D01*
G01*
X12750000Y-7366000D02*
G75*
G03*
X12650000Y-7366000I-50000J0D01*
G01*
X12650000Y-7366000D02*
G75*
G03*
X12750000Y-7366000I50000J0D01*
G01*
X12750000Y-7620000D02*
G75*
G03*
X12650000Y-7620000I-50000J0D01*
G01*
X12650000Y-7620000D02*
G75*
G03*
X12750000Y-7620000I50000J0D01*
G01*
X12750000Y-7874000D02*
G75*
G03*
X12650000Y-7874000I-50000J0D01*
G01*
X12650000Y-7874000D02*
G75*
G03*
X12750000Y-7874000I50000J0D01*
G01*
X12750000Y-8128000D02*
G75*
G03*
X12650000Y-8128000I-50000J0D01*
G01*
X12650000Y-8128000D02*
G75*
G03*
X12750000Y-8128000I50000J0D01*
G01*
X13258000Y-6350000D02*
G75*
G03*
X13158000Y-6350000I-50000J0D01*
G01*
X13158000Y-6350000D02*
G75*
G03*
X13258000Y-6350000I50000J0D01*
G01*
X13258000Y-7874000D02*
G75*
G03*
X13158000Y-7874000I-50000J0D01*
G01*
X13158000Y-7874000D02*
G75*
G03*
X13258000Y-7874000I50000J0D01*
G01*
X13269000Y-6604000D02*
G75*
G03*
X13169000Y-6604000I-50000J0D01*
G01*
X13169000Y-6604000D02*
G75*
G03*
X13269000Y-6604000I50000J0D01*
G01*
X13269000Y-6858000D02*
G75*
G03*
X13169000Y-6858000I-50000J0D01*
G01*
X13169000Y-6858000D02*
G75*
G03*
X13269000Y-6858000I50000J0D01*
G01*
X13269000Y-7112000D02*
G75*
G03*
X13169000Y-7112000I-50000J0D01*
G01*
X13169000Y-7112000D02*
G75*
G03*
X13269000Y-7112000I50000J0D01*
G01*
X13269000Y-7366000D02*
G75*
G03*
X13169000Y-7366000I-50000J0D01*
G01*
X13169000Y-7366000D02*
G75*
G03*
X13269000Y-7366000I50000J0D01*
G01*
X13269000Y-7620000D02*
G75*
G03*
X13169000Y-7620000I-50000J0D01*
G01*
X13169000Y-7620000D02*
G75*
G03*
X13269000Y-7620000I50000J0D01*
G01*
X15036000Y-6350000D02*
G75*
G03*
X14936000Y-6350000I-50000J0D01*
G01*
X14936000Y-6350000D02*
G75*
G03*
X15036000Y-6350000I50000J0D01*
G01*
X15036000Y-6604000D02*
G75*
G03*
X14936000Y-6604000I-50000J0D01*
G01*
X14936000Y-6604000D02*
G75*
G03*
X15036000Y-6604000I50000J0D01*
G01*
X15036000Y-6858000D02*
G75*
G03*
X14936000Y-6858000I-50000J0D01*
G01*
X14936000Y-6858000D02*
G75*
G03*
X15036000Y-6858000I50000J0D01*
G01*
X15036000Y-7874000D02*
G75*
G03*
X14936000Y-7874000I-50000J0D01*
G01*
X14936000Y-7874000D02*
G75*
G03*
X15036000Y-7874000I50000J0D01*
G01*
X15047000Y-7112000D02*
G75*
G03*
X14947000Y-7112000I-50000J0D01*
G01*
X14947000Y-7112000D02*
G75*
G03*
X15047000Y-7112000I50000J0D01*
G01*
X15047000Y-7366000D02*
G75*
G03*
X14947000Y-7366000I-50000J0D01*
G01*
X14947000Y-7366000D02*
G75*
G03*
X15047000Y-7366000I50000J0D01*
G01*
X15047000Y-7620000D02*
G75*
G03*
X14947000Y-7620000I-50000J0D01*
G01*
X14947000Y-7620000D02*
G75*
G03*
X15047000Y-7620000I50000J0D01*
G01*
X15544000Y-6350000D02*
G75*
G03*
X15444000Y-6350000I-50000J0D01*
G01*
X15444000Y-6350000D02*
G75*
G03*
X15544000Y-6350000I50000J0D01*
G01*
X15544000Y-6604000D02*
G75*
G03*
X15444000Y-6604000I-50000J0D01*
G01*
X15444000Y-6604000D02*
G75*
G03*
X15544000Y-6604000I50000J0D01*
G01*
X15544000Y-6858000D02*
G75*
G03*
X15444000Y-6858000I-50000J0D01*
G01*
X15444000Y-6858000D02*
G75*
G03*
X15544000Y-6858000I50000J0D01*
G01*
X15544000Y-7112000D02*
G75*
G03*
X15444000Y-7112000I-50000J0D01*
G01*
X15444000Y-7112000D02*
G75*
G03*
X15544000Y-7112000I50000J0D01*
G01*
X15544000Y-7620000D02*
G75*
G03*
X15444000Y-7620000I-50000J0D01*
G01*
X15444000Y-7620000D02*
G75*
G03*
X15544000Y-7620000I50000J0D01*
G01*
X15544000Y-7874000D02*
G75*
G03*
X15444000Y-7874000I-50000J0D01*
G01*
X15444000Y-7874000D02*
G75*
G03*
X15544000Y-7874000I50000J0D01*
G01*
X15544000Y-8128000D02*
G75*
G03*
X15444000Y-8128000I-50000J0D01*
G01*
X15444000Y-8128000D02*
G75*
G03*
X15544000Y-8128000I50000J0D01*
G01*
X17068000Y-6350000D02*
G75*
G03*
X16968000Y-6350000I-50000J0D01*
G01*
X16968000Y-6350000D02*
G75*
G03*
X17068000Y-6350000I50000J0D01*
G01*
X17068000Y-6604000D02*
G75*
G03*
X16968000Y-6604000I-50000J0D01*
G01*
X16968000Y-6604000D02*
G75*
G03*
X17068000Y-6604000I50000J0D01*
G01*
X17068000Y-6858000D02*
G75*
G03*
X16968000Y-6858000I-50000J0D01*
G01*
X16968000Y-6858000D02*
G75*
G03*
X17068000Y-6858000I50000J0D01*
G01*
X17068000Y-7112000D02*
G75*
G03*
X16968000Y-7112000I-50000J0D01*
G01*
X16968000Y-7112000D02*
G75*
G03*
X17068000Y-7112000I50000J0D01*
G01*
X17068000Y-7620000D02*
G75*
G03*
X16968000Y-7620000I-50000J0D01*
G01*
X16968000Y-7620000D02*
G75*
G03*
X17068000Y-7620000I50000J0D01*
G01*
X17068000Y-7874000D02*
G75*
G03*
X16968000Y-7874000I-50000J0D01*
G01*
X16968000Y-7874000D02*
G75*
G03*
X17068000Y-7874000I50000J0D01*
G01*
X17068000Y-8128000D02*
G75*
G03*
X16968000Y-8128000I-50000J0D01*
G01*
X16968000Y-8128000D02*
G75*
G03*
X17068000Y-8128000I50000J0D01*
G01*
X17449000Y-6350000D02*
G75*
G03*
X17349000Y-6350000I-50000J0D01*
G01*
X17349000Y-6350000D02*
G75*
G03*
X17449000Y-6350000I50000J0D01*
G01*
X17449000Y-6604000D02*
G75*
G03*
X17349000Y-6604000I-50000J0D01*
G01*
X17349000Y-6604000D02*
G75*
G03*
X17449000Y-6604000I50000J0D01*
G01*
X17449000Y-6858000D02*
G75*
G03*
X17349000Y-6858000I-50000J0D01*
G01*
X17349000Y-6858000D02*
G75*
G03*
X17449000Y-6858000I50000J0D01*
G01*
X17449000Y-7112000D02*
G75*
G03*
X17349000Y-7112000I-50000J0D01*
G01*
X17349000Y-7112000D02*
G75*
G03*
X17449000Y-7112000I50000J0D01*
G01*
X17449000Y-7366000D02*
G75*
G03*
X17349000Y-7366000I-50000J0D01*
G01*
X17349000Y-7366000D02*
G75*
G03*
X17449000Y-7366000I50000J0D01*
G01*
X18973000Y-6350000D02*
G75*
G03*
X18873000Y-6350000I-50000J0D01*
G01*
X18873000Y-6350000D02*
G75*
G03*
X18973000Y-6350000I50000J0D01*
G01*
X18973000Y-6604000D02*
G75*
G03*
X18873000Y-6604000I-50000J0D01*
G01*
X18873000Y-6604000D02*
G75*
G03*
X18973000Y-6604000I50000J0D01*
G01*
X18973000Y-6858000D02*
G75*
G03*
X18873000Y-6858000I-50000J0D01*
G01*
X18873000Y-6858000D02*
G75*
G03*
X18973000Y-6858000I50000J0D01*
G01*
X18973000Y-7112000D02*
G75*
G03*
X18873000Y-7112000I-50000J0D01*
G01*
X18873000Y-7112000D02*
G75*
G03*
X18973000Y-7112000I50000J0D01*
G01*
X18973000Y-7366000D02*
G75*
G03*
X18873000Y-7366000I-50000J0D01*
G01*
X18873000Y-7366000D02*
G75*
G03*
X18973000Y-7366000I50000J0D01*
G01*
D11*
X11304777Y-8698484D02*
X11304777Y-8498484D01*
X11304777Y-8498484D02*
X11352396Y-8498484D01*
X11352396Y-8498484D02*
X11380967Y-8508008D01*
X11380967Y-8508008D02*
X11400015Y-8527055D01*
X11400015Y-8527055D02*
X11409539Y-8546103D01*
X11409539Y-8546103D02*
X11419062Y-8584198D01*
X11419062Y-8584198D02*
X11419062Y-8612770D01*
X11419062Y-8612770D02*
X11409539Y-8650865D01*
X11409539Y-8650865D02*
X11400015Y-8669912D01*
X11400015Y-8669912D02*
X11380967Y-8688960D01*
X11380967Y-8688960D02*
X11352396Y-8698484D01*
X11352396Y-8698484D02*
X11304777Y-8698484D01*
X11504777Y-8698484D02*
X11504777Y-8565150D01*
X11504777Y-8603246D02*
X11514301Y-8584198D01*
X11514301Y-8584198D02*
X11523824Y-8574674D01*
X11523824Y-8574674D02*
X11542872Y-8565150D01*
X11542872Y-8565150D02*
X11561920Y-8565150D01*
X11628586Y-8698484D02*
X11628586Y-8565150D01*
X11628586Y-8498484D02*
X11619062Y-8508008D01*
X11619062Y-8508008D02*
X11628586Y-8517531D01*
X11628586Y-8517531D02*
X11638110Y-8508008D01*
X11638110Y-8508008D02*
X11628586Y-8498484D01*
X11628586Y-8498484D02*
X11628586Y-8517531D01*
X11752396Y-8698484D02*
X11733348Y-8688960D01*
X11733348Y-8688960D02*
X11723824Y-8669912D01*
X11723824Y-8669912D02*
X11723824Y-8498484D01*
X11857158Y-8698484D02*
X11838110Y-8688960D01*
X11838110Y-8688960D02*
X11828586Y-8669912D01*
X11828586Y-8669912D02*
X11828586Y-8498484D01*
X12085729Y-8698484D02*
X12085729Y-8498484D01*
X12085729Y-8498484D02*
X12152396Y-8641341D01*
X12152396Y-8641341D02*
X12219062Y-8498484D01*
X12219062Y-8498484D02*
X12219062Y-8698484D01*
X12400015Y-8698484D02*
X12400015Y-8593722D01*
X12400015Y-8593722D02*
X12390491Y-8574674D01*
X12390491Y-8574674D02*
X12371443Y-8565150D01*
X12371443Y-8565150D02*
X12333348Y-8565150D01*
X12333348Y-8565150D02*
X12314301Y-8574674D01*
X12400015Y-8688960D02*
X12380967Y-8698484D01*
X12380967Y-8698484D02*
X12333348Y-8698484D01*
X12333348Y-8698484D02*
X12314301Y-8688960D01*
X12314301Y-8688960D02*
X12304777Y-8669912D01*
X12304777Y-8669912D02*
X12304777Y-8650865D01*
X12304777Y-8650865D02*
X12314301Y-8631817D01*
X12314301Y-8631817D02*
X12333348Y-8622293D01*
X12333348Y-8622293D02*
X12380967Y-8622293D01*
X12380967Y-8622293D02*
X12400015Y-8612770D01*
X12495253Y-8565150D02*
X12495253Y-8765150D01*
X12495253Y-8574674D02*
X12514301Y-8565150D01*
X12514301Y-8565150D02*
X12552396Y-8565150D01*
X12552396Y-8565150D02*
X12571443Y-8574674D01*
X12571443Y-8574674D02*
X12580967Y-8584198D01*
X12580967Y-8584198D02*
X12590491Y-8603246D01*
X12590491Y-8603246D02*
X12590491Y-8660389D01*
X12590491Y-8660389D02*
X12580967Y-8679436D01*
X12580967Y-8679436D02*
X12571443Y-8688960D01*
X12571443Y-8688960D02*
X12552396Y-8698484D01*
X12552396Y-8698484D02*
X12514301Y-8698484D01*
X12514301Y-8698484D02*
X12495253Y-8688960D01*
X12676205Y-8679436D02*
X12685729Y-8688960D01*
X12685729Y-8688960D02*
X12676205Y-8698484D01*
X12676205Y-8698484D02*
X12666682Y-8688960D01*
X12666682Y-8688960D02*
X12676205Y-8679436D01*
X12676205Y-8679436D02*
X12676205Y-8698484D01*
X12676205Y-8574674D02*
X12685729Y-8584198D01*
X12685729Y-8584198D02*
X12676205Y-8593722D01*
X12676205Y-8593722D02*
X12666682Y-8584198D01*
X12666682Y-8584198D02*
X12676205Y-8574674D01*
X12676205Y-8574674D02*
X12676205Y-8593722D01*
D10*
X10984000Y-8997000D02*
X11044000Y-9057000D01*
X11044000Y-8997000D02*
X10984000Y-9057000D01*
D11*
X11342872Y-8918484D02*
X11361920Y-8918484D01*
X11361920Y-8918484D02*
X11380967Y-8928008D01*
X11380967Y-8928008D02*
X11390491Y-8937531D01*
X11390491Y-8937531D02*
X11400015Y-8956579D01*
X11400015Y-8956579D02*
X11409539Y-8994674D01*
X11409539Y-8994674D02*
X11409539Y-9042293D01*
X11409539Y-9042293D02*
X11400015Y-9080389D01*
X11400015Y-9080389D02*
X11390491Y-9099436D01*
X11390491Y-9099436D02*
X11380967Y-9108960D01*
X11380967Y-9108960D02*
X11361920Y-9118484D01*
X11361920Y-9118484D02*
X11342872Y-9118484D01*
X11342872Y-9118484D02*
X11323824Y-9108960D01*
X11323824Y-9108960D02*
X11314301Y-9099436D01*
X11314301Y-9099436D02*
X11304777Y-9080389D01*
X11304777Y-9080389D02*
X11295253Y-9042293D01*
X11295253Y-9042293D02*
X11295253Y-8994674D01*
X11295253Y-8994674D02*
X11304777Y-8956579D01*
X11304777Y-8956579D02*
X11314301Y-8937531D01*
X11314301Y-8937531D02*
X11323824Y-8928008D01*
X11323824Y-8928008D02*
X11342872Y-8918484D01*
X11495253Y-9099436D02*
X11504777Y-9108960D01*
X11504777Y-9108960D02*
X11495253Y-9118484D01*
X11495253Y-9118484D02*
X11485729Y-9108960D01*
X11485729Y-9108960D02*
X11495253Y-9099436D01*
X11495253Y-9099436D02*
X11495253Y-9118484D01*
X11676205Y-8918484D02*
X11638110Y-8918484D01*
X11638110Y-8918484D02*
X11619062Y-8928008D01*
X11619062Y-8928008D02*
X11609539Y-8937531D01*
X11609539Y-8937531D02*
X11590491Y-8966103D01*
X11590491Y-8966103D02*
X11580967Y-9004198D01*
X11580967Y-9004198D02*
X11580967Y-9080389D01*
X11580967Y-9080389D02*
X11590491Y-9099436D01*
X11590491Y-9099436D02*
X11600015Y-9108960D01*
X11600015Y-9108960D02*
X11619062Y-9118484D01*
X11619062Y-9118484D02*
X11657158Y-9118484D01*
X11657158Y-9118484D02*
X11676205Y-9108960D01*
X11676205Y-9108960D02*
X11685729Y-9099436D01*
X11685729Y-9099436D02*
X11695253Y-9080389D01*
X11695253Y-9080389D02*
X11695253Y-9032770D01*
X11695253Y-9032770D02*
X11685729Y-9013722D01*
X11685729Y-9013722D02*
X11676205Y-9004198D01*
X11676205Y-9004198D02*
X11657158Y-8994674D01*
X11657158Y-8994674D02*
X11619062Y-8994674D01*
X11619062Y-8994674D02*
X11600015Y-9004198D01*
X11600015Y-9004198D02*
X11590491Y-9013722D01*
X11590491Y-9013722D02*
X11580967Y-9032770D01*
X11819062Y-8918484D02*
X11838110Y-8918484D01*
X11838110Y-8918484D02*
X11857158Y-8928008D01*
X11857158Y-8928008D02*
X11866682Y-8937531D01*
X11866682Y-8937531D02*
X11876205Y-8956579D01*
X11876205Y-8956579D02*
X11885729Y-8994674D01*
X11885729Y-8994674D02*
X11885729Y-9042293D01*
X11885729Y-9042293D02*
X11876205Y-9080389D01*
X11876205Y-9080389D02*
X11866682Y-9099436D01*
X11866682Y-9099436D02*
X11857158Y-9108960D01*
X11857158Y-9108960D02*
X11838110Y-9118484D01*
X11838110Y-9118484D02*
X11819062Y-9118484D01*
X11819062Y-9118484D02*
X11800015Y-9108960D01*
X11800015Y-9108960D02*
X11790491Y-9099436D01*
X11790491Y-9099436D02*
X11780967Y-9080389D01*
X11780967Y-9080389D02*
X11771443Y-9042293D01*
X11771443Y-9042293D02*
X11771443Y-8994674D01*
X11771443Y-8994674D02*
X11780967Y-8956579D01*
X11780967Y-8956579D02*
X11790491Y-8937531D01*
X11790491Y-8937531D02*
X11800015Y-8928008D01*
X11800015Y-8928008D02*
X11819062Y-8918484D01*
X12009539Y-8918484D02*
X12028586Y-8918484D01*
X12028586Y-8918484D02*
X12047634Y-8928008D01*
X12047634Y-8928008D02*
X12057158Y-8937531D01*
X12057158Y-8937531D02*
X12066682Y-8956579D01*
X12066682Y-8956579D02*
X12076205Y-8994674D01*
X12076205Y-8994674D02*
X12076205Y-9042293D01*
X12076205Y-9042293D02*
X12066682Y-9080389D01*
X12066682Y-9080389D02*
X12057158Y-9099436D01*
X12057158Y-9099436D02*
X12047634Y-9108960D01*
X12047634Y-9108960D02*
X12028586Y-9118484D01*
X12028586Y-9118484D02*
X12009539Y-9118484D01*
X12009539Y-9118484D02*
X11990491Y-9108960D01*
X11990491Y-9108960D02*
X11980967Y-9099436D01*
X11980967Y-9099436D02*
X11971443Y-9080389D01*
X11971443Y-9080389D02*
X11961920Y-9042293D01*
X11961920Y-9042293D02*
X11961920Y-8994674D01*
X11961920Y-8994674D02*
X11971443Y-8956579D01*
X11971443Y-8956579D02*
X11980967Y-8937531D01*
X11980967Y-8937531D02*
X11990491Y-8928008D01*
X11990491Y-8928008D02*
X12009539Y-8918484D01*
X12161920Y-9118484D02*
X12161920Y-8985150D01*
X12161920Y-9004198D02*
X12171443Y-8994674D01*
X12171443Y-8994674D02*
X12190491Y-8985150D01*
X12190491Y-8985150D02*
X12219063Y-8985150D01*
X12219063Y-8985150D02*
X12238110Y-8994674D01*
X12238110Y-8994674D02*
X12247634Y-9013722D01*
X12247634Y-9013722D02*
X12247634Y-9118484D01*
X12247634Y-9013722D02*
X12257158Y-8994674D01*
X12257158Y-8994674D02*
X12276205Y-8985150D01*
X12276205Y-8985150D02*
X12304777Y-8985150D01*
X12304777Y-8985150D02*
X12323824Y-8994674D01*
X12323824Y-8994674D02*
X12333348Y-9013722D01*
X12333348Y-9013722D02*
X12333348Y-9118484D01*
X12428586Y-9118484D02*
X12428586Y-8985150D01*
X12428586Y-9004198D02*
X12438110Y-8994674D01*
X12438110Y-8994674D02*
X12457158Y-8985150D01*
X12457158Y-8985150D02*
X12485729Y-8985150D01*
X12485729Y-8985150D02*
X12504777Y-8994674D01*
X12504777Y-8994674D02*
X12514301Y-9013722D01*
X12514301Y-9013722D02*
X12514301Y-9118484D01*
X12514301Y-9013722D02*
X12523824Y-8994674D01*
X12523824Y-8994674D02*
X12542872Y-8985150D01*
X12542872Y-8985150D02*
X12571443Y-8985150D01*
X12571443Y-8985150D02*
X12590491Y-8994674D01*
X12590491Y-8994674D02*
X12600015Y-9013722D01*
X12600015Y-9013722D02*
X12600015Y-9118484D01*
X12990491Y-8908960D02*
X12819063Y-9166103D01*
X13247634Y-8918484D02*
X13266682Y-8918484D01*
X13266682Y-8918484D02*
X13285729Y-8928008D01*
X13285729Y-8928008D02*
X13295253Y-8937531D01*
X13295253Y-8937531D02*
X13304777Y-8956579D01*
X13304777Y-8956579D02*
X13314301Y-8994674D01*
X13314301Y-8994674D02*
X13314301Y-9042293D01*
X13314301Y-9042293D02*
X13304777Y-9080389D01*
X13304777Y-9080389D02*
X13295253Y-9099436D01*
X13295253Y-9099436D02*
X13285729Y-9108960D01*
X13285729Y-9108960D02*
X13266682Y-9118484D01*
X13266682Y-9118484D02*
X13247634Y-9118484D01*
X13247634Y-9118484D02*
X13228586Y-9108960D01*
X13228586Y-9108960D02*
X13219063Y-9099436D01*
X13219063Y-9099436D02*
X13209539Y-9080389D01*
X13209539Y-9080389D02*
X13200015Y-9042293D01*
X13200015Y-9042293D02*
X13200015Y-8994674D01*
X13200015Y-8994674D02*
X13209539Y-8956579D01*
X13209539Y-8956579D02*
X13219063Y-8937531D01*
X13219063Y-8937531D02*
X13228586Y-8928008D01*
X13228586Y-8928008D02*
X13247634Y-8918484D01*
X13400015Y-9099436D02*
X13409539Y-9108960D01*
X13409539Y-9108960D02*
X13400015Y-9118484D01*
X13400015Y-9118484D02*
X13390491Y-9108960D01*
X13390491Y-9108960D02*
X13400015Y-9099436D01*
X13400015Y-9099436D02*
X13400015Y-9118484D01*
X13533348Y-8918484D02*
X13552396Y-8918484D01*
X13552396Y-8918484D02*
X13571444Y-8928008D01*
X13571444Y-8928008D02*
X13580967Y-8937531D01*
X13580967Y-8937531D02*
X13590491Y-8956579D01*
X13590491Y-8956579D02*
X13600015Y-8994674D01*
X13600015Y-8994674D02*
X13600015Y-9042293D01*
X13600015Y-9042293D02*
X13590491Y-9080389D01*
X13590491Y-9080389D02*
X13580967Y-9099436D01*
X13580967Y-9099436D02*
X13571444Y-9108960D01*
X13571444Y-9108960D02*
X13552396Y-9118484D01*
X13552396Y-9118484D02*
X13533348Y-9118484D01*
X13533348Y-9118484D02*
X13514301Y-9108960D01*
X13514301Y-9108960D02*
X13504777Y-9099436D01*
X13504777Y-9099436D02*
X13495253Y-9080389D01*
X13495253Y-9080389D02*
X13485729Y-9042293D01*
X13485729Y-9042293D02*
X13485729Y-8994674D01*
X13485729Y-8994674D02*
X13495253Y-8956579D01*
X13495253Y-8956579D02*
X13504777Y-8937531D01*
X13504777Y-8937531D02*
X13514301Y-8928008D01*
X13514301Y-8928008D02*
X13533348Y-8918484D01*
X13676206Y-8937531D02*
X13685729Y-8928008D01*
X13685729Y-8928008D02*
X13704777Y-8918484D01*
X13704777Y-8918484D02*
X13752396Y-8918484D01*
X13752396Y-8918484D02*
X13771444Y-8928008D01*
X13771444Y-8928008D02*
X13780967Y-8937531D01*
X13780967Y-8937531D02*
X13790491Y-8956579D01*
X13790491Y-8956579D02*
X13790491Y-8975627D01*
X13790491Y-8975627D02*
X13780967Y-9004198D01*
X13780967Y-9004198D02*
X13666682Y-9118484D01*
X13666682Y-9118484D02*
X13790491Y-9118484D01*
X13857158Y-8918484D02*
X13980967Y-8918484D01*
X13980967Y-8918484D02*
X13914301Y-8994674D01*
X13914301Y-8994674D02*
X13942872Y-8994674D01*
X13942872Y-8994674D02*
X13961920Y-9004198D01*
X13961920Y-9004198D02*
X13971444Y-9013722D01*
X13971444Y-9013722D02*
X13980967Y-9032770D01*
X13980967Y-9032770D02*
X13980967Y-9080389D01*
X13980967Y-9080389D02*
X13971444Y-9099436D01*
X13971444Y-9099436D02*
X13961920Y-9108960D01*
X13961920Y-9108960D02*
X13942872Y-9118484D01*
X13942872Y-9118484D02*
X13885729Y-9118484D01*
X13885729Y-9118484D02*
X13866682Y-9108960D01*
X13866682Y-9108960D02*
X13857158Y-9099436D01*
X14152396Y-8918484D02*
X14114301Y-8918484D01*
X14114301Y-8918484D02*
X14095253Y-8928008D01*
X14095253Y-8928008D02*
X14085729Y-8937531D01*
X14085729Y-8937531D02*
X14066682Y-8966103D01*
X14066682Y-8966103D02*
X14057158Y-9004198D01*
X14057158Y-9004198D02*
X14057158Y-9080389D01*
X14057158Y-9080389D02*
X14066682Y-9099436D01*
X14066682Y-9099436D02*
X14076206Y-9108960D01*
X14076206Y-9108960D02*
X14095253Y-9118484D01*
X14095253Y-9118484D02*
X14133348Y-9118484D01*
X14133348Y-9118484D02*
X14152396Y-9108960D01*
X14152396Y-9108960D02*
X14161920Y-9099436D01*
X14161920Y-9099436D02*
X14171444Y-9080389D01*
X14171444Y-9080389D02*
X14171444Y-9032770D01*
X14171444Y-9032770D02*
X14161920Y-9013722D01*
X14161920Y-9013722D02*
X14152396Y-9004198D01*
X14152396Y-9004198D02*
X14133348Y-8994674D01*
X14133348Y-8994674D02*
X14095253Y-8994674D01*
X14095253Y-8994674D02*
X14076206Y-9004198D01*
X14076206Y-9004198D02*
X14066682Y-9013722D01*
X14066682Y-9013722D02*
X14057158Y-9032770D01*
X14247634Y-8918484D02*
X14247634Y-8956579D01*
X14323825Y-8918484D02*
X14323825Y-8956579D01*
X14619063Y-9194674D02*
X14609539Y-9185150D01*
X14609539Y-9185150D02*
X14590491Y-9156579D01*
X14590491Y-9156579D02*
X14580968Y-9137531D01*
X14580968Y-9137531D02*
X14571444Y-9108960D01*
X14571444Y-9108960D02*
X14561920Y-9061341D01*
X14561920Y-9061341D02*
X14561920Y-9023246D01*
X14561920Y-9023246D02*
X14571444Y-8975627D01*
X14571444Y-8975627D02*
X14580968Y-8947055D01*
X14580968Y-8947055D02*
X14590491Y-8928008D01*
X14590491Y-8928008D02*
X14609539Y-8899436D01*
X14609539Y-8899436D02*
X14619063Y-8889912D01*
X14733348Y-8918484D02*
X14752396Y-8918484D01*
X14752396Y-8918484D02*
X14771444Y-8928008D01*
X14771444Y-8928008D02*
X14780968Y-8937531D01*
X14780968Y-8937531D02*
X14790491Y-8956579D01*
X14790491Y-8956579D02*
X14800015Y-8994674D01*
X14800015Y-8994674D02*
X14800015Y-9042293D01*
X14800015Y-9042293D02*
X14790491Y-9080389D01*
X14790491Y-9080389D02*
X14780968Y-9099436D01*
X14780968Y-9099436D02*
X14771444Y-9108960D01*
X14771444Y-9108960D02*
X14752396Y-9118484D01*
X14752396Y-9118484D02*
X14733348Y-9118484D01*
X14733348Y-9118484D02*
X14714301Y-9108960D01*
X14714301Y-9108960D02*
X14704777Y-9099436D01*
X14704777Y-9099436D02*
X14695253Y-9080389D01*
X14695253Y-9080389D02*
X14685729Y-9042293D01*
X14685729Y-9042293D02*
X14685729Y-8994674D01*
X14685729Y-8994674D02*
X14695253Y-8956579D01*
X14695253Y-8956579D02*
X14704777Y-8937531D01*
X14704777Y-8937531D02*
X14714301Y-8928008D01*
X14714301Y-8928008D02*
X14733348Y-8918484D01*
X15038110Y-9118484D02*
X15038110Y-8918484D01*
X15123825Y-9118484D02*
X15123825Y-9013722D01*
X15123825Y-9013722D02*
X15114301Y-8994674D01*
X15114301Y-8994674D02*
X15095253Y-8985150D01*
X15095253Y-8985150D02*
X15066682Y-8985150D01*
X15066682Y-8985150D02*
X15047634Y-8994674D01*
X15047634Y-8994674D02*
X15038110Y-9004198D01*
X15247634Y-9118484D02*
X15228587Y-9108960D01*
X15228587Y-9108960D02*
X15219063Y-9099436D01*
X15219063Y-9099436D02*
X15209539Y-9080389D01*
X15209539Y-9080389D02*
X15209539Y-9023246D01*
X15209539Y-9023246D02*
X15219063Y-9004198D01*
X15219063Y-9004198D02*
X15228587Y-8994674D01*
X15228587Y-8994674D02*
X15247634Y-8985150D01*
X15247634Y-8985150D02*
X15276206Y-8985150D01*
X15276206Y-8985150D02*
X15295253Y-8994674D01*
X15295253Y-8994674D02*
X15304777Y-9004198D01*
X15304777Y-9004198D02*
X15314301Y-9023246D01*
X15314301Y-9023246D02*
X15314301Y-9080389D01*
X15314301Y-9080389D02*
X15304777Y-9099436D01*
X15304777Y-9099436D02*
X15295253Y-9108960D01*
X15295253Y-9108960D02*
X15276206Y-9118484D01*
X15276206Y-9118484D02*
X15247634Y-9118484D01*
X15428587Y-9118484D02*
X15409539Y-9108960D01*
X15409539Y-9108960D02*
X15400015Y-9089912D01*
X15400015Y-9089912D02*
X15400015Y-8918484D01*
X15580968Y-9108960D02*
X15561920Y-9118484D01*
X15561920Y-9118484D02*
X15523825Y-9118484D01*
X15523825Y-9118484D02*
X15504777Y-9108960D01*
X15504777Y-9108960D02*
X15495253Y-9089912D01*
X15495253Y-9089912D02*
X15495253Y-9013722D01*
X15495253Y-9013722D02*
X15504777Y-8994674D01*
X15504777Y-8994674D02*
X15523825Y-8985150D01*
X15523825Y-8985150D02*
X15561920Y-8985150D01*
X15561920Y-8985150D02*
X15580968Y-8994674D01*
X15580968Y-8994674D02*
X15590491Y-9013722D01*
X15590491Y-9013722D02*
X15590491Y-9032770D01*
X15590491Y-9032770D02*
X15495253Y-9051817D01*
X15666682Y-9108960D02*
X15685730Y-9118484D01*
X15685730Y-9118484D02*
X15723825Y-9118484D01*
X15723825Y-9118484D02*
X15742872Y-9108960D01*
X15742872Y-9108960D02*
X15752396Y-9089912D01*
X15752396Y-9089912D02*
X15752396Y-9080389D01*
X15752396Y-9080389D02*
X15742872Y-9061341D01*
X15742872Y-9061341D02*
X15723825Y-9051817D01*
X15723825Y-9051817D02*
X15695253Y-9051817D01*
X15695253Y-9051817D02*
X15676206Y-9042293D01*
X15676206Y-9042293D02*
X15666682Y-9023246D01*
X15666682Y-9023246D02*
X15666682Y-9013722D01*
X15666682Y-9013722D02*
X15676206Y-8994674D01*
X15676206Y-8994674D02*
X15695253Y-8985150D01*
X15695253Y-8985150D02*
X15723825Y-8985150D01*
X15723825Y-8985150D02*
X15742872Y-8994674D01*
X15990492Y-9042293D02*
X16142873Y-9042293D01*
X16066682Y-9118484D02*
X16066682Y-8966103D01*
X16476206Y-8985150D02*
X16476206Y-9118484D01*
X16428587Y-8908960D02*
X16380968Y-9051817D01*
X16380968Y-9051817D02*
X16504777Y-9051817D01*
X16723825Y-9108960D02*
X16742873Y-9118484D01*
X16742873Y-9118484D02*
X16780968Y-9118484D01*
X16780968Y-9118484D02*
X16800016Y-9108960D01*
X16800016Y-9108960D02*
X16809539Y-9089912D01*
X16809539Y-9089912D02*
X16809539Y-9080389D01*
X16809539Y-9080389D02*
X16800016Y-9061341D01*
X16800016Y-9061341D02*
X16780968Y-9051817D01*
X16780968Y-9051817D02*
X16752396Y-9051817D01*
X16752396Y-9051817D02*
X16733349Y-9042293D01*
X16733349Y-9042293D02*
X16723825Y-9023246D01*
X16723825Y-9023246D02*
X16723825Y-9013722D01*
X16723825Y-9013722D02*
X16733349Y-8994674D01*
X16733349Y-8994674D02*
X16752396Y-8985150D01*
X16752396Y-8985150D02*
X16780968Y-8985150D01*
X16780968Y-8985150D02*
X16800016Y-8994674D01*
X16923825Y-9118484D02*
X16904777Y-9108960D01*
X16904777Y-9108960D02*
X16895254Y-9089912D01*
X16895254Y-9089912D02*
X16895254Y-8918484D01*
X17028587Y-9118484D02*
X17009539Y-9108960D01*
X17009539Y-9108960D02*
X17000016Y-9099436D01*
X17000016Y-9099436D02*
X16990492Y-9080389D01*
X16990492Y-9080389D02*
X16990492Y-9023246D01*
X16990492Y-9023246D02*
X17000016Y-9004198D01*
X17000016Y-9004198D02*
X17009539Y-8994674D01*
X17009539Y-8994674D02*
X17028587Y-8985150D01*
X17028587Y-8985150D02*
X17057158Y-8985150D01*
X17057158Y-8985150D02*
X17076206Y-8994674D01*
X17076206Y-8994674D02*
X17085730Y-9004198D01*
X17085730Y-9004198D02*
X17095254Y-9023246D01*
X17095254Y-9023246D02*
X17095254Y-9080389D01*
X17095254Y-9080389D02*
X17085730Y-9099436D01*
X17085730Y-9099436D02*
X17076206Y-9108960D01*
X17076206Y-9108960D02*
X17057158Y-9118484D01*
X17057158Y-9118484D02*
X17028587Y-9118484D01*
X17152397Y-8985150D02*
X17228587Y-8985150D01*
X17180968Y-8918484D02*
X17180968Y-9089912D01*
X17180968Y-9089912D02*
X17190492Y-9108960D01*
X17190492Y-9108960D02*
X17209539Y-9118484D01*
X17209539Y-9118484D02*
X17228587Y-9118484D01*
X17285730Y-9108960D02*
X17304777Y-9118484D01*
X17304777Y-9118484D02*
X17342873Y-9118484D01*
X17342873Y-9118484D02*
X17361920Y-9108960D01*
X17361920Y-9108960D02*
X17371444Y-9089912D01*
X17371444Y-9089912D02*
X17371444Y-9080389D01*
X17371444Y-9080389D02*
X17361920Y-9061341D01*
X17361920Y-9061341D02*
X17342873Y-9051817D01*
X17342873Y-9051817D02*
X17314301Y-9051817D01*
X17314301Y-9051817D02*
X17295254Y-9042293D01*
X17295254Y-9042293D02*
X17285730Y-9023246D01*
X17285730Y-9023246D02*
X17285730Y-9013722D01*
X17285730Y-9013722D02*
X17295254Y-8994674D01*
X17295254Y-8994674D02*
X17314301Y-8985150D01*
X17314301Y-8985150D02*
X17342873Y-8985150D01*
X17342873Y-8985150D02*
X17361920Y-8994674D01*
X17438111Y-9194674D02*
X17447635Y-9185150D01*
X17447635Y-9185150D02*
X17466682Y-9156579D01*
X17466682Y-9156579D02*
X17476206Y-9137531D01*
X17476206Y-9137531D02*
X17485730Y-9108960D01*
X17485730Y-9108960D02*
X17495254Y-9061341D01*
X17495254Y-9061341D02*
X17495254Y-9023246D01*
X17495254Y-9023246D02*
X17485730Y-8975627D01*
X17485730Y-8975627D02*
X17476206Y-8947055D01*
X17476206Y-8947055D02*
X17466682Y-8928008D01*
X17466682Y-8928008D02*
X17447635Y-8899436D01*
X17447635Y-8899436D02*
X17438111Y-8889912D01*
D10*
X11044000Y-9291000D02*
G75*
G03*
X10944000Y-9291000I-50000J0D01*
G01*
X10944000Y-9291000D02*
G75*
G03*
X11044000Y-9291000I50000J0D01*
G01*
D11*
X11409539Y-9382484D02*
X11295253Y-9382484D01*
X11352396Y-9382484D02*
X11352396Y-9182484D01*
X11352396Y-9182484D02*
X11333348Y-9211055D01*
X11333348Y-9211055D02*
X11314301Y-9230103D01*
X11314301Y-9230103D02*
X11295253Y-9239627D01*
X11495253Y-9363436D02*
X11504777Y-9372960D01*
X11504777Y-9372960D02*
X11495253Y-9382484D01*
X11495253Y-9382484D02*
X11485729Y-9372960D01*
X11485729Y-9372960D02*
X11495253Y-9363436D01*
X11495253Y-9363436D02*
X11495253Y-9382484D01*
X11628586Y-9182484D02*
X11647634Y-9182484D01*
X11647634Y-9182484D02*
X11666682Y-9192008D01*
X11666682Y-9192008D02*
X11676205Y-9201531D01*
X11676205Y-9201531D02*
X11685729Y-9220579D01*
X11685729Y-9220579D02*
X11695253Y-9258674D01*
X11695253Y-9258674D02*
X11695253Y-9306293D01*
X11695253Y-9306293D02*
X11685729Y-9344389D01*
X11685729Y-9344389D02*
X11676205Y-9363436D01*
X11676205Y-9363436D02*
X11666682Y-9372960D01*
X11666682Y-9372960D02*
X11647634Y-9382484D01*
X11647634Y-9382484D02*
X11628586Y-9382484D01*
X11628586Y-9382484D02*
X11609539Y-9372960D01*
X11609539Y-9372960D02*
X11600015Y-9363436D01*
X11600015Y-9363436D02*
X11590491Y-9344389D01*
X11590491Y-9344389D02*
X11580967Y-9306293D01*
X11580967Y-9306293D02*
X11580967Y-9258674D01*
X11580967Y-9258674D02*
X11590491Y-9220579D01*
X11590491Y-9220579D02*
X11600015Y-9201531D01*
X11600015Y-9201531D02*
X11609539Y-9192008D01*
X11609539Y-9192008D02*
X11628586Y-9182484D01*
X11819062Y-9182484D02*
X11838110Y-9182484D01*
X11838110Y-9182484D02*
X11857158Y-9192008D01*
X11857158Y-9192008D02*
X11866682Y-9201531D01*
X11866682Y-9201531D02*
X11876205Y-9220579D01*
X11876205Y-9220579D02*
X11885729Y-9258674D01*
X11885729Y-9258674D02*
X11885729Y-9306293D01*
X11885729Y-9306293D02*
X11876205Y-9344389D01*
X11876205Y-9344389D02*
X11866682Y-9363436D01*
X11866682Y-9363436D02*
X11857158Y-9372960D01*
X11857158Y-9372960D02*
X11838110Y-9382484D01*
X11838110Y-9382484D02*
X11819062Y-9382484D01*
X11819062Y-9382484D02*
X11800015Y-9372960D01*
X11800015Y-9372960D02*
X11790491Y-9363436D01*
X11790491Y-9363436D02*
X11780967Y-9344389D01*
X11780967Y-9344389D02*
X11771443Y-9306293D01*
X11771443Y-9306293D02*
X11771443Y-9258674D01*
X11771443Y-9258674D02*
X11780967Y-9220579D01*
X11780967Y-9220579D02*
X11790491Y-9201531D01*
X11790491Y-9201531D02*
X11800015Y-9192008D01*
X11800015Y-9192008D02*
X11819062Y-9182484D01*
X12009539Y-9182484D02*
X12028586Y-9182484D01*
X12028586Y-9182484D02*
X12047634Y-9192008D01*
X12047634Y-9192008D02*
X12057158Y-9201531D01*
X12057158Y-9201531D02*
X12066682Y-9220579D01*
X12066682Y-9220579D02*
X12076205Y-9258674D01*
X12076205Y-9258674D02*
X12076205Y-9306293D01*
X12076205Y-9306293D02*
X12066682Y-9344389D01*
X12066682Y-9344389D02*
X12057158Y-9363436D01*
X12057158Y-9363436D02*
X12047634Y-9372960D01*
X12047634Y-9372960D02*
X12028586Y-9382484D01*
X12028586Y-9382484D02*
X12009539Y-9382484D01*
X12009539Y-9382484D02*
X11990491Y-9372960D01*
X11990491Y-9372960D02*
X11980967Y-9363436D01*
X11980967Y-9363436D02*
X11971443Y-9344389D01*
X11971443Y-9344389D02*
X11961920Y-9306293D01*
X11961920Y-9306293D02*
X11961920Y-9258674D01*
X11961920Y-9258674D02*
X11971443Y-9220579D01*
X11971443Y-9220579D02*
X11980967Y-9201531D01*
X11980967Y-9201531D02*
X11990491Y-9192008D01*
X11990491Y-9192008D02*
X12009539Y-9182484D01*
X12161920Y-9382484D02*
X12161920Y-9249150D01*
X12161920Y-9268198D02*
X12171443Y-9258674D01*
X12171443Y-9258674D02*
X12190491Y-9249150D01*
X12190491Y-9249150D02*
X12219063Y-9249150D01*
X12219063Y-9249150D02*
X12238110Y-9258674D01*
X12238110Y-9258674D02*
X12247634Y-9277722D01*
X12247634Y-9277722D02*
X12247634Y-9382484D01*
X12247634Y-9277722D02*
X12257158Y-9258674D01*
X12257158Y-9258674D02*
X12276205Y-9249150D01*
X12276205Y-9249150D02*
X12304777Y-9249150D01*
X12304777Y-9249150D02*
X12323824Y-9258674D01*
X12323824Y-9258674D02*
X12333348Y-9277722D01*
X12333348Y-9277722D02*
X12333348Y-9382484D01*
X12428586Y-9382484D02*
X12428586Y-9249150D01*
X12428586Y-9268198D02*
X12438110Y-9258674D01*
X12438110Y-9258674D02*
X12457158Y-9249150D01*
X12457158Y-9249150D02*
X12485729Y-9249150D01*
X12485729Y-9249150D02*
X12504777Y-9258674D01*
X12504777Y-9258674D02*
X12514301Y-9277722D01*
X12514301Y-9277722D02*
X12514301Y-9382484D01*
X12514301Y-9277722D02*
X12523824Y-9258674D01*
X12523824Y-9258674D02*
X12542872Y-9249150D01*
X12542872Y-9249150D02*
X12571443Y-9249150D01*
X12571443Y-9249150D02*
X12590491Y-9258674D01*
X12590491Y-9258674D02*
X12600015Y-9277722D01*
X12600015Y-9277722D02*
X12600015Y-9382484D01*
X12990491Y-9172960D02*
X12819063Y-9430103D01*
X13247634Y-9182484D02*
X13266682Y-9182484D01*
X13266682Y-9182484D02*
X13285729Y-9192008D01*
X13285729Y-9192008D02*
X13295253Y-9201531D01*
X13295253Y-9201531D02*
X13304777Y-9220579D01*
X13304777Y-9220579D02*
X13314301Y-9258674D01*
X13314301Y-9258674D02*
X13314301Y-9306293D01*
X13314301Y-9306293D02*
X13304777Y-9344389D01*
X13304777Y-9344389D02*
X13295253Y-9363436D01*
X13295253Y-9363436D02*
X13285729Y-9372960D01*
X13285729Y-9372960D02*
X13266682Y-9382484D01*
X13266682Y-9382484D02*
X13247634Y-9382484D01*
X13247634Y-9382484D02*
X13228586Y-9372960D01*
X13228586Y-9372960D02*
X13219063Y-9363436D01*
X13219063Y-9363436D02*
X13209539Y-9344389D01*
X13209539Y-9344389D02*
X13200015Y-9306293D01*
X13200015Y-9306293D02*
X13200015Y-9258674D01*
X13200015Y-9258674D02*
X13209539Y-9220579D01*
X13209539Y-9220579D02*
X13219063Y-9201531D01*
X13219063Y-9201531D02*
X13228586Y-9192008D01*
X13228586Y-9192008D02*
X13247634Y-9182484D01*
X13400015Y-9363436D02*
X13409539Y-9372960D01*
X13409539Y-9372960D02*
X13400015Y-9382484D01*
X13400015Y-9382484D02*
X13390491Y-9372960D01*
X13390491Y-9372960D02*
X13400015Y-9363436D01*
X13400015Y-9363436D02*
X13400015Y-9382484D01*
X13533348Y-9182484D02*
X13552396Y-9182484D01*
X13552396Y-9182484D02*
X13571444Y-9192008D01*
X13571444Y-9192008D02*
X13580967Y-9201531D01*
X13580967Y-9201531D02*
X13590491Y-9220579D01*
X13590491Y-9220579D02*
X13600015Y-9258674D01*
X13600015Y-9258674D02*
X13600015Y-9306293D01*
X13600015Y-9306293D02*
X13590491Y-9344389D01*
X13590491Y-9344389D02*
X13580967Y-9363436D01*
X13580967Y-9363436D02*
X13571444Y-9372960D01*
X13571444Y-9372960D02*
X13552396Y-9382484D01*
X13552396Y-9382484D02*
X13533348Y-9382484D01*
X13533348Y-9382484D02*
X13514301Y-9372960D01*
X13514301Y-9372960D02*
X13504777Y-9363436D01*
X13504777Y-9363436D02*
X13495253Y-9344389D01*
X13495253Y-9344389D02*
X13485729Y-9306293D01*
X13485729Y-9306293D02*
X13485729Y-9258674D01*
X13485729Y-9258674D02*
X13495253Y-9220579D01*
X13495253Y-9220579D02*
X13504777Y-9201531D01*
X13504777Y-9201531D02*
X13514301Y-9192008D01*
X13514301Y-9192008D02*
X13533348Y-9182484D01*
X13666682Y-9182484D02*
X13790491Y-9182484D01*
X13790491Y-9182484D02*
X13723825Y-9258674D01*
X13723825Y-9258674D02*
X13752396Y-9258674D01*
X13752396Y-9258674D02*
X13771444Y-9268198D01*
X13771444Y-9268198D02*
X13780967Y-9277722D01*
X13780967Y-9277722D02*
X13790491Y-9296770D01*
X13790491Y-9296770D02*
X13790491Y-9344389D01*
X13790491Y-9344389D02*
X13780967Y-9363436D01*
X13780967Y-9363436D02*
X13771444Y-9372960D01*
X13771444Y-9372960D02*
X13752396Y-9382484D01*
X13752396Y-9382484D02*
X13695253Y-9382484D01*
X13695253Y-9382484D02*
X13676206Y-9372960D01*
X13676206Y-9372960D02*
X13666682Y-9363436D01*
X13885729Y-9382484D02*
X13923825Y-9382484D01*
X13923825Y-9382484D02*
X13942872Y-9372960D01*
X13942872Y-9372960D02*
X13952396Y-9363436D01*
X13952396Y-9363436D02*
X13971444Y-9334865D01*
X13971444Y-9334865D02*
X13980967Y-9296770D01*
X13980967Y-9296770D02*
X13980967Y-9220579D01*
X13980967Y-9220579D02*
X13971444Y-9201531D01*
X13971444Y-9201531D02*
X13961920Y-9192008D01*
X13961920Y-9192008D02*
X13942872Y-9182484D01*
X13942872Y-9182484D02*
X13904777Y-9182484D01*
X13904777Y-9182484D02*
X13885729Y-9192008D01*
X13885729Y-9192008D02*
X13876206Y-9201531D01*
X13876206Y-9201531D02*
X13866682Y-9220579D01*
X13866682Y-9220579D02*
X13866682Y-9268198D01*
X13866682Y-9268198D02*
X13876206Y-9287246D01*
X13876206Y-9287246D02*
X13885729Y-9296770D01*
X13885729Y-9296770D02*
X13904777Y-9306293D01*
X13904777Y-9306293D02*
X13942872Y-9306293D01*
X13942872Y-9306293D02*
X13961920Y-9296770D01*
X13961920Y-9296770D02*
X13971444Y-9287246D01*
X13971444Y-9287246D02*
X13980967Y-9268198D01*
X14152396Y-9249150D02*
X14152396Y-9382484D01*
X14104777Y-9172960D02*
X14057158Y-9315817D01*
X14057158Y-9315817D02*
X14180967Y-9315817D01*
X14247634Y-9182484D02*
X14247634Y-9220579D01*
X14323825Y-9182484D02*
X14323825Y-9220579D01*
X14619063Y-9458674D02*
X14609539Y-9449150D01*
X14609539Y-9449150D02*
X14590491Y-9420579D01*
X14590491Y-9420579D02*
X14580968Y-9401531D01*
X14580968Y-9401531D02*
X14571444Y-9372960D01*
X14571444Y-9372960D02*
X14561920Y-9325341D01*
X14561920Y-9325341D02*
X14561920Y-9287246D01*
X14561920Y-9287246D02*
X14571444Y-9239627D01*
X14571444Y-9239627D02*
X14580968Y-9211055D01*
X14580968Y-9211055D02*
X14590491Y-9192008D01*
X14590491Y-9192008D02*
X14609539Y-9163436D01*
X14609539Y-9163436D02*
X14619063Y-9153912D01*
X14790491Y-9182484D02*
X14695253Y-9182484D01*
X14695253Y-9182484D02*
X14685729Y-9277722D01*
X14685729Y-9277722D02*
X14695253Y-9268198D01*
X14695253Y-9268198D02*
X14714301Y-9258674D01*
X14714301Y-9258674D02*
X14761920Y-9258674D01*
X14761920Y-9258674D02*
X14780968Y-9268198D01*
X14780968Y-9268198D02*
X14790491Y-9277722D01*
X14790491Y-9277722D02*
X14800015Y-9296770D01*
X14800015Y-9296770D02*
X14800015Y-9344389D01*
X14800015Y-9344389D02*
X14790491Y-9363436D01*
X14790491Y-9363436D02*
X14780968Y-9372960D01*
X14780968Y-9372960D02*
X14761920Y-9382484D01*
X14761920Y-9382484D02*
X14714301Y-9382484D01*
X14714301Y-9382484D02*
X14695253Y-9372960D01*
X14695253Y-9372960D02*
X14685729Y-9363436D01*
X14971444Y-9249150D02*
X14971444Y-9382484D01*
X14923825Y-9172960D02*
X14876206Y-9315817D01*
X14876206Y-9315817D02*
X15000015Y-9315817D01*
X15228587Y-9382484D02*
X15228587Y-9182484D01*
X15314301Y-9382484D02*
X15314301Y-9277722D01*
X15314301Y-9277722D02*
X15304777Y-9258674D01*
X15304777Y-9258674D02*
X15285730Y-9249150D01*
X15285730Y-9249150D02*
X15257158Y-9249150D01*
X15257158Y-9249150D02*
X15238110Y-9258674D01*
X15238110Y-9258674D02*
X15228587Y-9268198D01*
X15438110Y-9382484D02*
X15419063Y-9372960D01*
X15419063Y-9372960D02*
X15409539Y-9363436D01*
X15409539Y-9363436D02*
X15400015Y-9344389D01*
X15400015Y-9344389D02*
X15400015Y-9287246D01*
X15400015Y-9287246D02*
X15409539Y-9268198D01*
X15409539Y-9268198D02*
X15419063Y-9258674D01*
X15419063Y-9258674D02*
X15438110Y-9249150D01*
X15438110Y-9249150D02*
X15466682Y-9249150D01*
X15466682Y-9249150D02*
X15485730Y-9258674D01*
X15485730Y-9258674D02*
X15495253Y-9268198D01*
X15495253Y-9268198D02*
X15504777Y-9287246D01*
X15504777Y-9287246D02*
X15504777Y-9344389D01*
X15504777Y-9344389D02*
X15495253Y-9363436D01*
X15495253Y-9363436D02*
X15485730Y-9372960D01*
X15485730Y-9372960D02*
X15466682Y-9382484D01*
X15466682Y-9382484D02*
X15438110Y-9382484D01*
X15619063Y-9382484D02*
X15600015Y-9372960D01*
X15600015Y-9372960D02*
X15590491Y-9353912D01*
X15590491Y-9353912D02*
X15590491Y-9182484D01*
X15771444Y-9372960D02*
X15752396Y-9382484D01*
X15752396Y-9382484D02*
X15714301Y-9382484D01*
X15714301Y-9382484D02*
X15695253Y-9372960D01*
X15695253Y-9372960D02*
X15685730Y-9353912D01*
X15685730Y-9353912D02*
X15685730Y-9277722D01*
X15685730Y-9277722D02*
X15695253Y-9258674D01*
X15695253Y-9258674D02*
X15714301Y-9249150D01*
X15714301Y-9249150D02*
X15752396Y-9249150D01*
X15752396Y-9249150D02*
X15771444Y-9258674D01*
X15771444Y-9258674D02*
X15780968Y-9277722D01*
X15780968Y-9277722D02*
X15780968Y-9296770D01*
X15780968Y-9296770D02*
X15685730Y-9315817D01*
X15857158Y-9372960D02*
X15876206Y-9382484D01*
X15876206Y-9382484D02*
X15914301Y-9382484D01*
X15914301Y-9382484D02*
X15933349Y-9372960D01*
X15933349Y-9372960D02*
X15942872Y-9353912D01*
X15942872Y-9353912D02*
X15942872Y-9344389D01*
X15942872Y-9344389D02*
X15933349Y-9325341D01*
X15933349Y-9325341D02*
X15914301Y-9315817D01*
X15914301Y-9315817D02*
X15885730Y-9315817D01*
X15885730Y-9315817D02*
X15866682Y-9306293D01*
X15866682Y-9306293D02*
X15857158Y-9287246D01*
X15857158Y-9287246D02*
X15857158Y-9277722D01*
X15857158Y-9277722D02*
X15866682Y-9258674D01*
X15866682Y-9258674D02*
X15885730Y-9249150D01*
X15885730Y-9249150D02*
X15914301Y-9249150D01*
X15914301Y-9249150D02*
X15933349Y-9258674D01*
X16009539Y-9458674D02*
X16019063Y-9449150D01*
X16019063Y-9449150D02*
X16038111Y-9420579D01*
X16038111Y-9420579D02*
X16047634Y-9401531D01*
X16047634Y-9401531D02*
X16057158Y-9372960D01*
X16057158Y-9372960D02*
X16066682Y-9325341D01*
X16066682Y-9325341D02*
X16066682Y-9287246D01*
X16066682Y-9287246D02*
X16057158Y-9239627D01*
X16057158Y-9239627D02*
X16047634Y-9211055D01*
X16047634Y-9211055D02*
X16038111Y-9192008D01*
X16038111Y-9192008D02*
X16019063Y-9163436D01*
X16019063Y-9163436D02*
X16009539Y-9153912D01*
M02*
