%TF.GenerationSoftware,KiCad,Pcbnew,7.0.10*%
%TF.CreationDate,2024-01-15T10:33:49+01:00*%
%TF.ProjectId,smd_breadboard,736d645f-6272-4656-9164-626f6172642e,rev?*%
%TF.SameCoordinates,Original*%
%TF.FileFunction,Soldermask,Top*%
%TF.FilePolarity,Negative*%
%FSLAX46Y46*%
G04 Gerber Fmt 4.6, Leading zero omitted, Abs format (unit mm)*
G04 Created by KiCad (PCBNEW 7.0.10) date 2024-01-15 10:33:49*
%MOMM*%
%LPD*%
G01*
G04 APERTURE LIST*
G04 Aperture macros list*
%AMRoundRect*
0 Rectangle with rounded corners*
0 $1 Rounding radius*
0 $2 $3 $4 $5 $6 $7 $8 $9 X,Y pos of 4 corners*
0 Add a 4 corners polygon primitive as box body*
4,1,4,$2,$3,$4,$5,$6,$7,$8,$9,$2,$3,0*
0 Add four circle primitives for the rounded corners*
1,1,$1+$1,$2,$3*
1,1,$1+$1,$4,$5*
1,1,$1+$1,$6,$7*
1,1,$1+$1,$8,$9*
0 Add four rect primitives between the rounded corners*
20,1,$1+$1,$2,$3,$4,$5,0*
20,1,$1+$1,$4,$5,$6,$7,0*
20,1,$1+$1,$6,$7,$8,$9,0*
20,1,$1+$1,$8,$9,$2,$3,0*%
%AMFreePoly0*
4,1,6,0.500000,-0.850000,-0.500000,-0.850000,-0.500000,0.550000,-0.200000,0.850000,0.500000,0.850000,0.500000,-0.850000,0.500000,-0.850000,$1*%
G04 Aperture macros list end*
%ADD10C,1.600000*%
%ADD11O,1.000000X1.800000*%
%ADD12O,1.000000X2.100000*%
%ADD13RoundRect,0.150000X-0.150000X-0.425000X0.150000X-0.425000X0.150000X0.425000X-0.150000X0.425000X0*%
%ADD14RoundRect,0.075000X-0.075000X-0.500000X0.075000X-0.500000X0.075000X0.500000X-0.075000X0.500000X0*%
%ADD15C,0.650000*%
%ADD16RoundRect,0.150000X-0.650000X-0.150000X0.650000X-0.150000X0.650000X0.150000X-0.650000X0.150000X0*%
%ADD17R,1.200000X0.400000*%
%ADD18R,0.550000X0.250000*%
%ADD19FreePoly0,180.000000*%
%ADD20RoundRect,0.150000X0.512500X0.150000X-0.512500X0.150000X-0.512500X-0.150000X0.512500X-0.150000X0*%
G04 APERTURE END LIST*
D10*
%TO.C,*%
X132080000Y-66040000D03*
%TD*%
%TO.C,*%
X189230000Y-73660000D03*
%TD*%
%TO.C,*%
X173990000Y-73660000D03*
%TD*%
%TO.C,*%
X189230000Y-68580000D03*
%TD*%
%TO.C,*%
X173990000Y-71120000D03*
%TD*%
%TO.C,*%
X173990000Y-63500000D03*
%TD*%
%TO.C,*%
X189230000Y-66040000D03*
%TD*%
%TO.C,*%
X189230000Y-63500000D03*
%TD*%
%TO.C,*%
X173990000Y-68580000D03*
%TD*%
%TO.C,*%
X189230000Y-71120000D03*
%TD*%
%TO.C,*%
X173990000Y-66040000D03*
%TD*%
%TO.C,*%
X149860000Y-71120000D03*
%TD*%
%TO.C,*%
X149860000Y-66040000D03*
%TD*%
%TO.C,*%
X149860000Y-68580000D03*
%TD*%
%TO.C,*%
X132190000Y-76200000D03*
%TD*%
%TO.C,*%
X149970000Y-76200000D03*
%TD*%
%TO.C,*%
X132190000Y-78740000D03*
%TD*%
%TO.C,*%
X132190000Y-68580000D03*
%TD*%
%TO.C,*%
X132190000Y-73660000D03*
%TD*%
%TO.C,*%
X132190000Y-71120000D03*
%TD*%
%TO.C,*%
X149970000Y-78740000D03*
%TD*%
%TO.C,*%
X149970000Y-73660000D03*
%TD*%
%TO.C,*%
X170180000Y-81280000D03*
%TD*%
%TO.C,*%
X154940000Y-76200000D03*
%TD*%
%TO.C,*%
X170180000Y-78740000D03*
%TD*%
%TO.C,*%
X170180000Y-76200000D03*
%TD*%
%TO.C,*%
X154940000Y-81280000D03*
%TD*%
%TO.C,*%
X154940000Y-78740000D03*
%TD*%
%TO.C,*%
X170180000Y-66040000D03*
%TD*%
%TO.C,*%
X154940000Y-71120000D03*
%TD*%
%TO.C,*%
X170180000Y-63500000D03*
%TD*%
%TO.C,*%
X170180000Y-68580000D03*
%TD*%
%TO.C,*%
X154940000Y-68580000D03*
%TD*%
%TO.C,*%
X170180000Y-71120000D03*
%TD*%
%TO.C,*%
X154940000Y-66040000D03*
%TD*%
%TO.C,*%
X154940000Y-63500000D03*
%TD*%
%TO.C,*%
X127000000Y-81280000D03*
%TD*%
%TO.C,*%
X127000000Y-78740000D03*
%TD*%
%TO.C,*%
X127000000Y-76200000D03*
%TD*%
%TO.C,*%
X127000000Y-73660000D03*
%TD*%
%TO.C,*%
X127000000Y-71120000D03*
%TD*%
%TO.C,*%
X127000000Y-68580000D03*
%TD*%
%TO.C,*%
X127000000Y-66040000D03*
%TD*%
%TO.C,*%
X127000000Y-63500000D03*
%TD*%
%TO.C,*%
X111760000Y-81280000D03*
%TD*%
%TO.C,*%
X111760000Y-78740000D03*
%TD*%
%TO.C,*%
X111760000Y-76200000D03*
%TD*%
%TO.C,*%
X111760000Y-73660000D03*
%TD*%
%TO.C,*%
X111760000Y-71120000D03*
%TD*%
%TO.C,*%
X111760000Y-68580000D03*
%TD*%
%TO.C,*%
X111760000Y-66040000D03*
%TD*%
%TO.C,*%
X111760000Y-63500000D03*
%TD*%
D11*
%TO.C,USB4105-GF-A*%
X145400000Y-76200000D03*
D12*
X145400000Y-72020000D03*
D11*
X136760000Y-76200000D03*
D12*
X136760000Y-72020000D03*
D13*
X137880000Y-71445000D03*
X138680000Y-71445000D03*
D14*
X139330000Y-71445000D03*
X140330000Y-71445000D03*
X141830000Y-71445000D03*
X142830000Y-71445000D03*
D13*
X143480000Y-71445000D03*
X144280000Y-71445000D03*
X144280000Y-71445000D03*
X143480000Y-71445000D03*
D14*
X142330000Y-71445000D03*
X141330000Y-71445000D03*
X140830000Y-71445000D03*
X139830000Y-71445000D03*
D13*
X138680000Y-71445000D03*
X137880000Y-71445000D03*
D15*
X143970000Y-72520000D03*
X138190000Y-72520000D03*
%TD*%
D16*
%TO.C,QUAD 8SOIC*%
X165942500Y-65632500D03*
X165942500Y-66902500D03*
X165942500Y-68172500D03*
X165942500Y-69442500D03*
X158742500Y-69442500D03*
X158742500Y-68172500D03*
X158742500Y-66902500D03*
X158742500Y-65632500D03*
%TD*%
D17*
%TO.C,16SSOP*%
X122100000Y-70077500D03*
X122100000Y-70712500D03*
X122100000Y-71347500D03*
X122100000Y-71982500D03*
X122100000Y-72617500D03*
X122100000Y-73252500D03*
X122100000Y-73887500D03*
X122100000Y-74522500D03*
X116900000Y-74522500D03*
X116900000Y-73887500D03*
X116900000Y-73252500D03*
X116900000Y-72617500D03*
X116900000Y-71982500D03*
X116900000Y-71347500D03*
X116900000Y-70712500D03*
X116900000Y-70077500D03*
%TD*%
D18*
%TO.C,SHT30-DIS-B2.5KS*%
X182452500Y-68172500D03*
X182452500Y-67672500D03*
X182452500Y-67172500D03*
X182452500Y-66672500D03*
X180102500Y-66672500D03*
X180102500Y-67172500D03*
X180102500Y-67672500D03*
X180102500Y-68172500D03*
D19*
X181277500Y-67422500D03*
%TD*%
D20*
%TO.C,TSOT23-6*%
X161002500Y-79370000D03*
X161002500Y-78420000D03*
X161002500Y-77470000D03*
X163277500Y-77470000D03*
X163277500Y-78420000D03*
X163277500Y-79370000D03*
%TD*%
M02*
