%TF.GenerationSoftware,KiCad,Pcbnew,7.0.10*%
%TF.CreationDate,2024-01-22T07:53:42+01:00*%
%TF.ProjectId,smd_breadboard,736d645f-6272-4656-9164-626f6172642e,rev?*%
%TF.SameCoordinates,Original*%
%TF.FileFunction,Paste,Top*%
%TF.FilePolarity,Positive*%
%FSLAX46Y46*%
G04 Gerber Fmt 4.6, Leading zero omitted, Abs format (unit mm)*
G04 Created by KiCad (PCBNEW 7.0.10) date 2024-01-22 07:53:42*
%MOMM*%
%LPD*%
G01*
G04 APERTURE LIST*
G04 Aperture macros list*
%AMRoundRect*
0 Rectangle with rounded corners*
0 $1 Rounding radius*
0 $2 $3 $4 $5 $6 $7 $8 $9 X,Y pos of 4 corners*
0 Add a 4 corners polygon primitive as box body*
4,1,4,$2,$3,$4,$5,$6,$7,$8,$9,$2,$3,0*
0 Add four circle primitives for the rounded corners*
1,1,$1+$1,$2,$3*
1,1,$1+$1,$4,$5*
1,1,$1+$1,$6,$7*
1,1,$1+$1,$8,$9*
0 Add four rect primitives between the rounded corners*
20,1,$1+$1,$2,$3,$4,$5,0*
20,1,$1+$1,$4,$5,$6,$7,0*
20,1,$1+$1,$6,$7,$8,$9,0*
20,1,$1+$1,$8,$9,$2,$3,0*%
%AMFreePoly0*
4,1,6,0.450000,-0.800000,-0.450000,-0.800000,-0.450000,0.530000,-0.180000,0.800000,0.450000,0.800000,0.450000,-0.800000,0.450000,-0.800000,$1*%
G04 Aperture macros list end*
%ADD10RoundRect,0.237500X0.300000X0.237500X-0.300000X0.237500X-0.300000X-0.237500X0.300000X-0.237500X0*%
%ADD11RoundRect,0.237500X0.237500X-0.300000X0.237500X0.300000X-0.237500X0.300000X-0.237500X-0.300000X0*%
%ADD12RoundRect,0.237500X-0.300000X-0.237500X0.300000X-0.237500X0.300000X0.237500X-0.300000X0.237500X0*%
%ADD13O,1.000000X1.800000*%
%ADD14O,1.000000X2.100000*%
%ADD15RoundRect,0.150000X-0.150000X-0.425000X0.150000X-0.425000X0.150000X0.425000X-0.150000X0.425000X0*%
%ADD16RoundRect,0.075000X-0.075000X-0.500000X0.075000X-0.500000X0.075000X0.500000X-0.075000X0.500000X0*%
%ADD17RoundRect,0.150000X-0.650000X-0.150000X0.650000X-0.150000X0.650000X0.150000X-0.650000X0.150000X0*%
%ADD18R,1.200000X0.400000*%
%ADD19FreePoly0,180.000000*%
%ADD20R,0.550000X0.250000*%
%ADD21RoundRect,0.150000X0.512500X0.150000X-0.512500X0.150000X-0.512500X-0.150000X0.512500X-0.150000X0*%
G04 APERTURE END LIST*
D10*
%TO.C,C3*%
X180186500Y-64897000D03*
X178461500Y-64897000D03*
%TD*%
D11*
%TO.C,C3*%
X156845000Y-69950500D03*
X156845000Y-68225500D03*
%TD*%
%TO.C,C3*%
X166751000Y-80618500D03*
X166751000Y-78893500D03*
%TD*%
D12*
%TO.C,C3*%
X118263500Y-68199000D03*
X119988500Y-68199000D03*
%TD*%
D13*
%TO.C,USB4105-GF-A*%
X145400000Y-77575000D03*
D14*
X145400000Y-73395000D03*
D13*
X136760000Y-77575000D03*
D14*
X136760000Y-73395000D03*
D15*
X137880000Y-72820000D03*
X138680000Y-72820000D03*
D16*
X139330000Y-72820000D03*
X140330000Y-72820000D03*
X141830000Y-72820000D03*
X142830000Y-72820000D03*
D15*
X143480000Y-72820000D03*
X144280000Y-72820000D03*
X144280000Y-72820000D03*
X143480000Y-72820000D03*
D16*
X142330000Y-72820000D03*
X141330000Y-72820000D03*
X140830000Y-72820000D03*
X139830000Y-72820000D03*
D15*
X138680000Y-72820000D03*
X137880000Y-72820000D03*
%TD*%
D17*
%TO.C,QUAD 8SOIC*%
X158742500Y-65632500D03*
X158742500Y-66902500D03*
X158742500Y-68172500D03*
X158742500Y-69442500D03*
X165942500Y-69442500D03*
X165942500Y-68172500D03*
X165942500Y-66902500D03*
X165942500Y-65632500D03*
%TD*%
D18*
%TO.C,16SSOP*%
X116900000Y-70077500D03*
X116900000Y-70712500D03*
X116900000Y-71347500D03*
X116900000Y-71982500D03*
X116900000Y-72617500D03*
X116900000Y-73252500D03*
X116900000Y-73887500D03*
X116900000Y-74522500D03*
X122100000Y-74522500D03*
X122100000Y-73887500D03*
X122100000Y-73252500D03*
X122100000Y-72617500D03*
X122100000Y-71982500D03*
X122100000Y-71347500D03*
X122100000Y-70712500D03*
X122100000Y-70077500D03*
%TD*%
D19*
%TO.C,SHT30-DIS-B2.5KS*%
X181277500Y-67422500D03*
D20*
X182452500Y-68172500D03*
X182452500Y-67672500D03*
X182452500Y-67172500D03*
X182452500Y-66672500D03*
X180102500Y-66672500D03*
X180102500Y-67172500D03*
X180102500Y-67672500D03*
X180102500Y-68172500D03*
%TD*%
D21*
%TO.C,TSOT23-6*%
X163277500Y-79370000D03*
X163277500Y-78420000D03*
X163277500Y-77470000D03*
X161002500Y-77470000D03*
X161002500Y-78420000D03*
X161002500Y-79370000D03*
%TD*%
M02*
