%TF.GenerationSoftware,KiCad,Pcbnew,7.0.10*%
%TF.CreationDate,2024-02-02T14:05:35+01:00*%
%TF.ProjectId,smd_breadboard,736d645f-6272-4656-9164-626f6172642e,rev?*%
%TF.SameCoordinates,Original*%
%TF.FileFunction,Profile,NP*%
%FSLAX46Y46*%
G04 Gerber Fmt 4.6, Leading zero omitted, Abs format (unit mm)*
G04 Created by KiCad (PCBNEW 7.0.10) date 2024-02-02 14:05:35*
%MOMM*%
%LPD*%
G01*
G04 APERTURE LIST*
%TA.AperFunction,Profile*%
%ADD10C,0.100000*%
%TD*%
G04 APERTURE END LIST*
D10*
X171450000Y-62230000D02*
X153670000Y-62230000D01*
X172720000Y-62230000D02*
X172720000Y-77470000D01*
X171450000Y-73660000D02*
X153670000Y-73660000D01*
X190500000Y-62230000D02*
X172720000Y-62230000D01*
X153670000Y-62230000D02*
X153670000Y-72390000D01*
X172720000Y-77470000D02*
X190500000Y-77470000D01*
X110490000Y-82550000D02*
X110490000Y-62230000D01*
X153670000Y-73660000D02*
X153670000Y-83820000D01*
X153670000Y-72390000D02*
X171450000Y-72390000D01*
X190500000Y-77470000D02*
X190500000Y-62230000D01*
X128270000Y-82550000D02*
X110490000Y-82550000D01*
X110490000Y-62230000D02*
X128270000Y-62230000D01*
X151130000Y-62230000D02*
X130810000Y-62230000D01*
X130810000Y-62230000D02*
X130810000Y-80010000D01*
X151130000Y-80010000D02*
X151130000Y-62230000D01*
X130810000Y-80010000D02*
X151130000Y-80010000D01*
X171450000Y-83820000D02*
X171450000Y-73660000D01*
X171450000Y-72390000D02*
X171450000Y-62230000D01*
X128270000Y-62230000D02*
X128270000Y-82550000D01*
X153670000Y-83820000D02*
X171450000Y-83820000D01*
M02*
