%TF.GenerationSoftware,KiCad,Pcbnew,7.0.10*%
%TF.CreationDate,2024-01-22T07:53:42+01:00*%
%TF.ProjectId,smd_breadboard,736d645f-6272-4656-9164-626f6172642e,rev?*%
%TF.SameCoordinates,Original*%
%TF.FileFunction,Copper,L1,Top*%
%TF.FilePolarity,Positive*%
%FSLAX46Y46*%
G04 Gerber Fmt 4.6, Leading zero omitted, Abs format (unit mm)*
G04 Created by KiCad (PCBNEW 7.0.10) date 2024-01-22 07:53:42*
%MOMM*%
%LPD*%
G01*
G04 APERTURE LIST*
G04 Aperture macros list*
%AMRoundRect*
0 Rectangle with rounded corners*
0 $1 Rounding radius*
0 $2 $3 $4 $5 $6 $7 $8 $9 X,Y pos of 4 corners*
0 Add a 4 corners polygon primitive as box body*
4,1,4,$2,$3,$4,$5,$6,$7,$8,$9,$2,$3,0*
0 Add four circle primitives for the rounded corners*
1,1,$1+$1,$2,$3*
1,1,$1+$1,$4,$5*
1,1,$1+$1,$6,$7*
1,1,$1+$1,$8,$9*
0 Add four rect primitives between the rounded corners*
20,1,$1+$1,$2,$3,$4,$5,0*
20,1,$1+$1,$4,$5,$6,$7,0*
20,1,$1+$1,$6,$7,$8,$9,0*
20,1,$1+$1,$8,$9,$2,$3,0*%
%AMFreePoly0*
4,1,6,0.500000,-0.850000,-0.500000,-0.850000,-0.500000,0.550000,-0.200000,0.850000,0.500000,0.850000,0.500000,-0.850000,0.500000,-0.850000,$1*%
G04 Aperture macros list end*
%ADD10C,0.150000*%
%TA.AperFunction,NonConductor*%
%ADD11C,0.150000*%
%TD*%
%TA.AperFunction,SMDPad,CuDef*%
%ADD12RoundRect,0.237500X0.300000X0.237500X-0.300000X0.237500X-0.300000X-0.237500X0.300000X-0.237500X0*%
%TD*%
%TA.AperFunction,SMDPad,CuDef*%
%ADD13RoundRect,0.237500X0.237500X-0.300000X0.237500X0.300000X-0.237500X0.300000X-0.237500X-0.300000X0*%
%TD*%
%TA.AperFunction,SMDPad,CuDef*%
%ADD14RoundRect,0.237500X-0.300000X-0.237500X0.300000X-0.237500X0.300000X0.237500X-0.300000X0.237500X0*%
%TD*%
%TA.AperFunction,ComponentPad*%
%ADD15C,1.600000*%
%TD*%
%TA.AperFunction,ComponentPad*%
%ADD16O,1.000000X1.800000*%
%TD*%
%TA.AperFunction,ComponentPad*%
%ADD17O,1.000000X2.100000*%
%TD*%
%TA.AperFunction,SMDPad,CuDef*%
%ADD18RoundRect,0.150000X-0.150000X-0.425000X0.150000X-0.425000X0.150000X0.425000X-0.150000X0.425000X0*%
%TD*%
%TA.AperFunction,SMDPad,CuDef*%
%ADD19RoundRect,0.075000X-0.075000X-0.500000X0.075000X-0.500000X0.075000X0.500000X-0.075000X0.500000X0*%
%TD*%
%TA.AperFunction,SMDPad,CuDef*%
%ADD20RoundRect,0.150000X-0.650000X-0.150000X0.650000X-0.150000X0.650000X0.150000X-0.650000X0.150000X0*%
%TD*%
%TA.AperFunction,SMDPad,CuDef*%
%ADD21R,1.200000X0.400000*%
%TD*%
%TA.AperFunction,SMDPad,CuDef*%
%ADD22R,0.550000X0.250000*%
%TD*%
%TA.AperFunction,SMDPad,CuDef*%
%ADD23FreePoly0,180.000000*%
%TD*%
%TA.AperFunction,SMDPad,CuDef*%
%ADD24RoundRect,0.150000X0.512500X0.150000X-0.512500X0.150000X-0.512500X-0.150000X0.512500X-0.150000X0*%
%TD*%
%TA.AperFunction,Conductor*%
%ADD25C,0.300000*%
%TD*%
G04 APERTURE END LIST*
D10*
D11*
X179978207Y-63655580D02*
X179930588Y-63703200D01*
X179930588Y-63703200D02*
X179787731Y-63750819D01*
X179787731Y-63750819D02*
X179692493Y-63750819D01*
X179692493Y-63750819D02*
X179549636Y-63703200D01*
X179549636Y-63703200D02*
X179454398Y-63607961D01*
X179454398Y-63607961D02*
X179406779Y-63512723D01*
X179406779Y-63512723D02*
X179359160Y-63322247D01*
X179359160Y-63322247D02*
X179359160Y-63179390D01*
X179359160Y-63179390D02*
X179406779Y-62988914D01*
X179406779Y-62988914D02*
X179454398Y-62893676D01*
X179454398Y-62893676D02*
X179549636Y-62798438D01*
X179549636Y-62798438D02*
X179692493Y-62750819D01*
X179692493Y-62750819D02*
X179787731Y-62750819D01*
X179787731Y-62750819D02*
X179930588Y-62798438D01*
X179930588Y-62798438D02*
X179978207Y-62846057D01*
X180406779Y-63227009D02*
X180740112Y-63227009D01*
X180882969Y-63750819D02*
X180406779Y-63750819D01*
X180406779Y-63750819D02*
X180406779Y-62750819D01*
X180406779Y-62750819D02*
X180882969Y-62750819D01*
X181263922Y-63703200D02*
X181406779Y-63750819D01*
X181406779Y-63750819D02*
X181644874Y-63750819D01*
X181644874Y-63750819D02*
X181740112Y-63703200D01*
X181740112Y-63703200D02*
X181787731Y-63655580D01*
X181787731Y-63655580D02*
X181835350Y-63560342D01*
X181835350Y-63560342D02*
X181835350Y-63465104D01*
X181835350Y-63465104D02*
X181787731Y-63369866D01*
X181787731Y-63369866D02*
X181740112Y-63322247D01*
X181740112Y-63322247D02*
X181644874Y-63274628D01*
X181644874Y-63274628D02*
X181454398Y-63227009D01*
X181454398Y-63227009D02*
X181359160Y-63179390D01*
X181359160Y-63179390D02*
X181311541Y-63131771D01*
X181311541Y-63131771D02*
X181263922Y-63036533D01*
X181263922Y-63036533D02*
X181263922Y-62941295D01*
X181263922Y-62941295D02*
X181311541Y-62846057D01*
X181311541Y-62846057D02*
X181359160Y-62798438D01*
X181359160Y-62798438D02*
X181454398Y-62750819D01*
X181454398Y-62750819D02*
X181692493Y-62750819D01*
X181692493Y-62750819D02*
X181835350Y-62798438D01*
X183644874Y-63274628D02*
X183597255Y-63227009D01*
X183597255Y-63227009D02*
X183502017Y-63179390D01*
X183502017Y-63179390D02*
X183406779Y-63179390D01*
X183406779Y-63179390D02*
X183311541Y-63227009D01*
X183311541Y-63227009D02*
X183263922Y-63274628D01*
X183263922Y-63274628D02*
X183216303Y-63369866D01*
X183216303Y-63369866D02*
X183216303Y-63465104D01*
X183216303Y-63465104D02*
X183263922Y-63560342D01*
X183263922Y-63560342D02*
X183311541Y-63607961D01*
X183311541Y-63607961D02*
X183406779Y-63655580D01*
X183406779Y-63655580D02*
X183502017Y-63655580D01*
X183502017Y-63655580D02*
X183597255Y-63607961D01*
X183597255Y-63607961D02*
X183644874Y-63560342D01*
X183644874Y-63179390D02*
X183644874Y-63560342D01*
X183644874Y-63560342D02*
X183692493Y-63607961D01*
X183692493Y-63607961D02*
X183740112Y-63607961D01*
X183740112Y-63607961D02*
X183835351Y-63560342D01*
X183835351Y-63560342D02*
X183882970Y-63465104D01*
X183882970Y-63465104D02*
X183882970Y-63227009D01*
X183882970Y-63227009D02*
X183787732Y-63084152D01*
X183787732Y-63084152D02*
X183644874Y-62988914D01*
X183644874Y-62988914D02*
X183454398Y-62941295D01*
X183454398Y-62941295D02*
X183263922Y-62988914D01*
X183263922Y-62988914D02*
X183121065Y-63084152D01*
X183121065Y-63084152D02*
X183025827Y-63227009D01*
X183025827Y-63227009D02*
X182978208Y-63417485D01*
X182978208Y-63417485D02*
X183025827Y-63607961D01*
X183025827Y-63607961D02*
X183121065Y-63750819D01*
X183121065Y-63750819D02*
X183263922Y-63846057D01*
X183263922Y-63846057D02*
X183454398Y-63893676D01*
X183454398Y-63893676D02*
X183644874Y-63846057D01*
X183644874Y-63846057D02*
X183787732Y-63750819D01*
X185073446Y-63750819D02*
X185073446Y-62750819D01*
X185644874Y-63750819D02*
X185216303Y-63179390D01*
X185644874Y-62750819D02*
X185073446Y-63322247D01*
X186073446Y-63750819D02*
X186073446Y-62750819D01*
X186406779Y-62750819D02*
X186978207Y-62750819D01*
X186692493Y-63750819D02*
X186692493Y-62750819D01*
D10*
D11*
X159388207Y-64054580D02*
X159340588Y-64102200D01*
X159340588Y-64102200D02*
X159197731Y-64149819D01*
X159197731Y-64149819D02*
X159102493Y-64149819D01*
X159102493Y-64149819D02*
X158959636Y-64102200D01*
X158959636Y-64102200D02*
X158864398Y-64006961D01*
X158864398Y-64006961D02*
X158816779Y-63911723D01*
X158816779Y-63911723D02*
X158769160Y-63721247D01*
X158769160Y-63721247D02*
X158769160Y-63578390D01*
X158769160Y-63578390D02*
X158816779Y-63387914D01*
X158816779Y-63387914D02*
X158864398Y-63292676D01*
X158864398Y-63292676D02*
X158959636Y-63197438D01*
X158959636Y-63197438D02*
X159102493Y-63149819D01*
X159102493Y-63149819D02*
X159197731Y-63149819D01*
X159197731Y-63149819D02*
X159340588Y-63197438D01*
X159340588Y-63197438D02*
X159388207Y-63245057D01*
X159816779Y-63626009D02*
X160150112Y-63626009D01*
X160292969Y-64149819D02*
X159816779Y-64149819D01*
X159816779Y-64149819D02*
X159816779Y-63149819D01*
X159816779Y-63149819D02*
X160292969Y-63149819D01*
X160673922Y-64102200D02*
X160816779Y-64149819D01*
X160816779Y-64149819D02*
X161054874Y-64149819D01*
X161054874Y-64149819D02*
X161150112Y-64102200D01*
X161150112Y-64102200D02*
X161197731Y-64054580D01*
X161197731Y-64054580D02*
X161245350Y-63959342D01*
X161245350Y-63959342D02*
X161245350Y-63864104D01*
X161245350Y-63864104D02*
X161197731Y-63768866D01*
X161197731Y-63768866D02*
X161150112Y-63721247D01*
X161150112Y-63721247D02*
X161054874Y-63673628D01*
X161054874Y-63673628D02*
X160864398Y-63626009D01*
X160864398Y-63626009D02*
X160769160Y-63578390D01*
X160769160Y-63578390D02*
X160721541Y-63530771D01*
X160721541Y-63530771D02*
X160673922Y-63435533D01*
X160673922Y-63435533D02*
X160673922Y-63340295D01*
X160673922Y-63340295D02*
X160721541Y-63245057D01*
X160721541Y-63245057D02*
X160769160Y-63197438D01*
X160769160Y-63197438D02*
X160864398Y-63149819D01*
X160864398Y-63149819D02*
X161102493Y-63149819D01*
X161102493Y-63149819D02*
X161245350Y-63197438D01*
X163054874Y-63673628D02*
X163007255Y-63626009D01*
X163007255Y-63626009D02*
X162912017Y-63578390D01*
X162912017Y-63578390D02*
X162816779Y-63578390D01*
X162816779Y-63578390D02*
X162721541Y-63626009D01*
X162721541Y-63626009D02*
X162673922Y-63673628D01*
X162673922Y-63673628D02*
X162626303Y-63768866D01*
X162626303Y-63768866D02*
X162626303Y-63864104D01*
X162626303Y-63864104D02*
X162673922Y-63959342D01*
X162673922Y-63959342D02*
X162721541Y-64006961D01*
X162721541Y-64006961D02*
X162816779Y-64054580D01*
X162816779Y-64054580D02*
X162912017Y-64054580D01*
X162912017Y-64054580D02*
X163007255Y-64006961D01*
X163007255Y-64006961D02*
X163054874Y-63959342D01*
X163054874Y-63578390D02*
X163054874Y-63959342D01*
X163054874Y-63959342D02*
X163102493Y-64006961D01*
X163102493Y-64006961D02*
X163150112Y-64006961D01*
X163150112Y-64006961D02*
X163245351Y-63959342D01*
X163245351Y-63959342D02*
X163292970Y-63864104D01*
X163292970Y-63864104D02*
X163292970Y-63626009D01*
X163292970Y-63626009D02*
X163197732Y-63483152D01*
X163197732Y-63483152D02*
X163054874Y-63387914D01*
X163054874Y-63387914D02*
X162864398Y-63340295D01*
X162864398Y-63340295D02*
X162673922Y-63387914D01*
X162673922Y-63387914D02*
X162531065Y-63483152D01*
X162531065Y-63483152D02*
X162435827Y-63626009D01*
X162435827Y-63626009D02*
X162388208Y-63816485D01*
X162388208Y-63816485D02*
X162435827Y-64006961D01*
X162435827Y-64006961D02*
X162531065Y-64149819D01*
X162531065Y-64149819D02*
X162673922Y-64245057D01*
X162673922Y-64245057D02*
X162864398Y-64292676D01*
X162864398Y-64292676D02*
X163054874Y-64245057D01*
X163054874Y-64245057D02*
X163197732Y-64149819D01*
X164483446Y-64149819D02*
X164483446Y-63149819D01*
X165054874Y-64149819D02*
X164626303Y-63578390D01*
X165054874Y-63149819D02*
X164483446Y-63721247D01*
X165483446Y-64149819D02*
X165483446Y-63149819D01*
X165816779Y-63149819D02*
X166388207Y-63149819D01*
X166102493Y-64149819D02*
X166102493Y-63149819D01*
D10*
D11*
X116708207Y-63874580D02*
X116660588Y-63922200D01*
X116660588Y-63922200D02*
X116517731Y-63969819D01*
X116517731Y-63969819D02*
X116422493Y-63969819D01*
X116422493Y-63969819D02*
X116279636Y-63922200D01*
X116279636Y-63922200D02*
X116184398Y-63826961D01*
X116184398Y-63826961D02*
X116136779Y-63731723D01*
X116136779Y-63731723D02*
X116089160Y-63541247D01*
X116089160Y-63541247D02*
X116089160Y-63398390D01*
X116089160Y-63398390D02*
X116136779Y-63207914D01*
X116136779Y-63207914D02*
X116184398Y-63112676D01*
X116184398Y-63112676D02*
X116279636Y-63017438D01*
X116279636Y-63017438D02*
X116422493Y-62969819D01*
X116422493Y-62969819D02*
X116517731Y-62969819D01*
X116517731Y-62969819D02*
X116660588Y-63017438D01*
X116660588Y-63017438D02*
X116708207Y-63065057D01*
X117136779Y-63446009D02*
X117470112Y-63446009D01*
X117612969Y-63969819D02*
X117136779Y-63969819D01*
X117136779Y-63969819D02*
X117136779Y-62969819D01*
X117136779Y-62969819D02*
X117612969Y-62969819D01*
X117993922Y-63922200D02*
X118136779Y-63969819D01*
X118136779Y-63969819D02*
X118374874Y-63969819D01*
X118374874Y-63969819D02*
X118470112Y-63922200D01*
X118470112Y-63922200D02*
X118517731Y-63874580D01*
X118517731Y-63874580D02*
X118565350Y-63779342D01*
X118565350Y-63779342D02*
X118565350Y-63684104D01*
X118565350Y-63684104D02*
X118517731Y-63588866D01*
X118517731Y-63588866D02*
X118470112Y-63541247D01*
X118470112Y-63541247D02*
X118374874Y-63493628D01*
X118374874Y-63493628D02*
X118184398Y-63446009D01*
X118184398Y-63446009D02*
X118089160Y-63398390D01*
X118089160Y-63398390D02*
X118041541Y-63350771D01*
X118041541Y-63350771D02*
X117993922Y-63255533D01*
X117993922Y-63255533D02*
X117993922Y-63160295D01*
X117993922Y-63160295D02*
X118041541Y-63065057D01*
X118041541Y-63065057D02*
X118089160Y-63017438D01*
X118089160Y-63017438D02*
X118184398Y-62969819D01*
X118184398Y-62969819D02*
X118422493Y-62969819D01*
X118422493Y-62969819D02*
X118565350Y-63017438D01*
X120374874Y-63493628D02*
X120327255Y-63446009D01*
X120327255Y-63446009D02*
X120232017Y-63398390D01*
X120232017Y-63398390D02*
X120136779Y-63398390D01*
X120136779Y-63398390D02*
X120041541Y-63446009D01*
X120041541Y-63446009D02*
X119993922Y-63493628D01*
X119993922Y-63493628D02*
X119946303Y-63588866D01*
X119946303Y-63588866D02*
X119946303Y-63684104D01*
X119946303Y-63684104D02*
X119993922Y-63779342D01*
X119993922Y-63779342D02*
X120041541Y-63826961D01*
X120041541Y-63826961D02*
X120136779Y-63874580D01*
X120136779Y-63874580D02*
X120232017Y-63874580D01*
X120232017Y-63874580D02*
X120327255Y-63826961D01*
X120327255Y-63826961D02*
X120374874Y-63779342D01*
X120374874Y-63398390D02*
X120374874Y-63779342D01*
X120374874Y-63779342D02*
X120422493Y-63826961D01*
X120422493Y-63826961D02*
X120470112Y-63826961D01*
X120470112Y-63826961D02*
X120565351Y-63779342D01*
X120565351Y-63779342D02*
X120612970Y-63684104D01*
X120612970Y-63684104D02*
X120612970Y-63446009D01*
X120612970Y-63446009D02*
X120517732Y-63303152D01*
X120517732Y-63303152D02*
X120374874Y-63207914D01*
X120374874Y-63207914D02*
X120184398Y-63160295D01*
X120184398Y-63160295D02*
X119993922Y-63207914D01*
X119993922Y-63207914D02*
X119851065Y-63303152D01*
X119851065Y-63303152D02*
X119755827Y-63446009D01*
X119755827Y-63446009D02*
X119708208Y-63636485D01*
X119708208Y-63636485D02*
X119755827Y-63826961D01*
X119755827Y-63826961D02*
X119851065Y-63969819D01*
X119851065Y-63969819D02*
X119993922Y-64065057D01*
X119993922Y-64065057D02*
X120184398Y-64112676D01*
X120184398Y-64112676D02*
X120374874Y-64065057D01*
X120374874Y-64065057D02*
X120517732Y-63969819D01*
X121803446Y-63969819D02*
X121803446Y-62969819D01*
X122374874Y-63969819D02*
X121946303Y-63398390D01*
X122374874Y-62969819D02*
X121803446Y-63541247D01*
X122803446Y-63969819D02*
X122803446Y-62969819D01*
X123136779Y-62969819D02*
X123708207Y-62969819D01*
X123422493Y-63969819D02*
X123422493Y-62969819D01*
D10*
D11*
X159608207Y-75474580D02*
X159560588Y-75522200D01*
X159560588Y-75522200D02*
X159417731Y-75569819D01*
X159417731Y-75569819D02*
X159322493Y-75569819D01*
X159322493Y-75569819D02*
X159179636Y-75522200D01*
X159179636Y-75522200D02*
X159084398Y-75426961D01*
X159084398Y-75426961D02*
X159036779Y-75331723D01*
X159036779Y-75331723D02*
X158989160Y-75141247D01*
X158989160Y-75141247D02*
X158989160Y-74998390D01*
X158989160Y-74998390D02*
X159036779Y-74807914D01*
X159036779Y-74807914D02*
X159084398Y-74712676D01*
X159084398Y-74712676D02*
X159179636Y-74617438D01*
X159179636Y-74617438D02*
X159322493Y-74569819D01*
X159322493Y-74569819D02*
X159417731Y-74569819D01*
X159417731Y-74569819D02*
X159560588Y-74617438D01*
X159560588Y-74617438D02*
X159608207Y-74665057D01*
X160036779Y-75046009D02*
X160370112Y-75046009D01*
X160512969Y-75569819D02*
X160036779Y-75569819D01*
X160036779Y-75569819D02*
X160036779Y-74569819D01*
X160036779Y-74569819D02*
X160512969Y-74569819D01*
X160893922Y-75522200D02*
X161036779Y-75569819D01*
X161036779Y-75569819D02*
X161274874Y-75569819D01*
X161274874Y-75569819D02*
X161370112Y-75522200D01*
X161370112Y-75522200D02*
X161417731Y-75474580D01*
X161417731Y-75474580D02*
X161465350Y-75379342D01*
X161465350Y-75379342D02*
X161465350Y-75284104D01*
X161465350Y-75284104D02*
X161417731Y-75188866D01*
X161417731Y-75188866D02*
X161370112Y-75141247D01*
X161370112Y-75141247D02*
X161274874Y-75093628D01*
X161274874Y-75093628D02*
X161084398Y-75046009D01*
X161084398Y-75046009D02*
X160989160Y-74998390D01*
X160989160Y-74998390D02*
X160941541Y-74950771D01*
X160941541Y-74950771D02*
X160893922Y-74855533D01*
X160893922Y-74855533D02*
X160893922Y-74760295D01*
X160893922Y-74760295D02*
X160941541Y-74665057D01*
X160941541Y-74665057D02*
X160989160Y-74617438D01*
X160989160Y-74617438D02*
X161084398Y-74569819D01*
X161084398Y-74569819D02*
X161322493Y-74569819D01*
X161322493Y-74569819D02*
X161465350Y-74617438D01*
X163274874Y-75093628D02*
X163227255Y-75046009D01*
X163227255Y-75046009D02*
X163132017Y-74998390D01*
X163132017Y-74998390D02*
X163036779Y-74998390D01*
X163036779Y-74998390D02*
X162941541Y-75046009D01*
X162941541Y-75046009D02*
X162893922Y-75093628D01*
X162893922Y-75093628D02*
X162846303Y-75188866D01*
X162846303Y-75188866D02*
X162846303Y-75284104D01*
X162846303Y-75284104D02*
X162893922Y-75379342D01*
X162893922Y-75379342D02*
X162941541Y-75426961D01*
X162941541Y-75426961D02*
X163036779Y-75474580D01*
X163036779Y-75474580D02*
X163132017Y-75474580D01*
X163132017Y-75474580D02*
X163227255Y-75426961D01*
X163227255Y-75426961D02*
X163274874Y-75379342D01*
X163274874Y-74998390D02*
X163274874Y-75379342D01*
X163274874Y-75379342D02*
X163322493Y-75426961D01*
X163322493Y-75426961D02*
X163370112Y-75426961D01*
X163370112Y-75426961D02*
X163465351Y-75379342D01*
X163465351Y-75379342D02*
X163512970Y-75284104D01*
X163512970Y-75284104D02*
X163512970Y-75046009D01*
X163512970Y-75046009D02*
X163417732Y-74903152D01*
X163417732Y-74903152D02*
X163274874Y-74807914D01*
X163274874Y-74807914D02*
X163084398Y-74760295D01*
X163084398Y-74760295D02*
X162893922Y-74807914D01*
X162893922Y-74807914D02*
X162751065Y-74903152D01*
X162751065Y-74903152D02*
X162655827Y-75046009D01*
X162655827Y-75046009D02*
X162608208Y-75236485D01*
X162608208Y-75236485D02*
X162655827Y-75426961D01*
X162655827Y-75426961D02*
X162751065Y-75569819D01*
X162751065Y-75569819D02*
X162893922Y-75665057D01*
X162893922Y-75665057D02*
X163084398Y-75712676D01*
X163084398Y-75712676D02*
X163274874Y-75665057D01*
X163274874Y-75665057D02*
X163417732Y-75569819D01*
X164703446Y-75569819D02*
X164703446Y-74569819D01*
X165274874Y-75569819D02*
X164846303Y-74998390D01*
X165274874Y-74569819D02*
X164703446Y-75141247D01*
X165703446Y-75569819D02*
X165703446Y-74569819D01*
X166036779Y-74569819D02*
X166608207Y-74569819D01*
X166322493Y-75569819D02*
X166322493Y-74569819D01*
D10*
D11*
X134668207Y-66494580D02*
X134620588Y-66542200D01*
X134620588Y-66542200D02*
X134477731Y-66589819D01*
X134477731Y-66589819D02*
X134382493Y-66589819D01*
X134382493Y-66589819D02*
X134239636Y-66542200D01*
X134239636Y-66542200D02*
X134144398Y-66446961D01*
X134144398Y-66446961D02*
X134096779Y-66351723D01*
X134096779Y-66351723D02*
X134049160Y-66161247D01*
X134049160Y-66161247D02*
X134049160Y-66018390D01*
X134049160Y-66018390D02*
X134096779Y-65827914D01*
X134096779Y-65827914D02*
X134144398Y-65732676D01*
X134144398Y-65732676D02*
X134239636Y-65637438D01*
X134239636Y-65637438D02*
X134382493Y-65589819D01*
X134382493Y-65589819D02*
X134477731Y-65589819D01*
X134477731Y-65589819D02*
X134620588Y-65637438D01*
X134620588Y-65637438D02*
X134668207Y-65685057D01*
X135096779Y-66066009D02*
X135430112Y-66066009D01*
X135572969Y-66589819D02*
X135096779Y-66589819D01*
X135096779Y-66589819D02*
X135096779Y-65589819D01*
X135096779Y-65589819D02*
X135572969Y-65589819D01*
X135953922Y-66542200D02*
X136096779Y-66589819D01*
X136096779Y-66589819D02*
X136334874Y-66589819D01*
X136334874Y-66589819D02*
X136430112Y-66542200D01*
X136430112Y-66542200D02*
X136477731Y-66494580D01*
X136477731Y-66494580D02*
X136525350Y-66399342D01*
X136525350Y-66399342D02*
X136525350Y-66304104D01*
X136525350Y-66304104D02*
X136477731Y-66208866D01*
X136477731Y-66208866D02*
X136430112Y-66161247D01*
X136430112Y-66161247D02*
X136334874Y-66113628D01*
X136334874Y-66113628D02*
X136144398Y-66066009D01*
X136144398Y-66066009D02*
X136049160Y-66018390D01*
X136049160Y-66018390D02*
X136001541Y-65970771D01*
X136001541Y-65970771D02*
X135953922Y-65875533D01*
X135953922Y-65875533D02*
X135953922Y-65780295D01*
X135953922Y-65780295D02*
X136001541Y-65685057D01*
X136001541Y-65685057D02*
X136049160Y-65637438D01*
X136049160Y-65637438D02*
X136144398Y-65589819D01*
X136144398Y-65589819D02*
X136382493Y-65589819D01*
X136382493Y-65589819D02*
X136525350Y-65637438D01*
X138334874Y-66113628D02*
X138287255Y-66066009D01*
X138287255Y-66066009D02*
X138192017Y-66018390D01*
X138192017Y-66018390D02*
X138096779Y-66018390D01*
X138096779Y-66018390D02*
X138001541Y-66066009D01*
X138001541Y-66066009D02*
X137953922Y-66113628D01*
X137953922Y-66113628D02*
X137906303Y-66208866D01*
X137906303Y-66208866D02*
X137906303Y-66304104D01*
X137906303Y-66304104D02*
X137953922Y-66399342D01*
X137953922Y-66399342D02*
X138001541Y-66446961D01*
X138001541Y-66446961D02*
X138096779Y-66494580D01*
X138096779Y-66494580D02*
X138192017Y-66494580D01*
X138192017Y-66494580D02*
X138287255Y-66446961D01*
X138287255Y-66446961D02*
X138334874Y-66399342D01*
X138334874Y-66018390D02*
X138334874Y-66399342D01*
X138334874Y-66399342D02*
X138382493Y-66446961D01*
X138382493Y-66446961D02*
X138430112Y-66446961D01*
X138430112Y-66446961D02*
X138525351Y-66399342D01*
X138525351Y-66399342D02*
X138572970Y-66304104D01*
X138572970Y-66304104D02*
X138572970Y-66066009D01*
X138572970Y-66066009D02*
X138477732Y-65923152D01*
X138477732Y-65923152D02*
X138334874Y-65827914D01*
X138334874Y-65827914D02*
X138144398Y-65780295D01*
X138144398Y-65780295D02*
X137953922Y-65827914D01*
X137953922Y-65827914D02*
X137811065Y-65923152D01*
X137811065Y-65923152D02*
X137715827Y-66066009D01*
X137715827Y-66066009D02*
X137668208Y-66256485D01*
X137668208Y-66256485D02*
X137715827Y-66446961D01*
X137715827Y-66446961D02*
X137811065Y-66589819D01*
X137811065Y-66589819D02*
X137953922Y-66685057D01*
X137953922Y-66685057D02*
X138144398Y-66732676D01*
X138144398Y-66732676D02*
X138334874Y-66685057D01*
X138334874Y-66685057D02*
X138477732Y-66589819D01*
X139763446Y-66589819D02*
X139763446Y-65589819D01*
X140334874Y-66589819D02*
X139906303Y-66018390D01*
X140334874Y-65589819D02*
X139763446Y-66161247D01*
X140763446Y-66589819D02*
X140763446Y-65589819D01*
X141096779Y-65589819D02*
X141668207Y-65589819D01*
X141382493Y-66589819D02*
X141382493Y-65589819D01*
D10*
D11*
X135238095Y-63589819D02*
X135238095Y-64399342D01*
X135238095Y-64399342D02*
X135285714Y-64494580D01*
X135285714Y-64494580D02*
X135333333Y-64542200D01*
X135333333Y-64542200D02*
X135428571Y-64589819D01*
X135428571Y-64589819D02*
X135619047Y-64589819D01*
X135619047Y-64589819D02*
X135714285Y-64542200D01*
X135714285Y-64542200D02*
X135761904Y-64494580D01*
X135761904Y-64494580D02*
X135809523Y-64399342D01*
X135809523Y-64399342D02*
X135809523Y-63589819D01*
X136238095Y-64542200D02*
X136380952Y-64589819D01*
X136380952Y-64589819D02*
X136619047Y-64589819D01*
X136619047Y-64589819D02*
X136714285Y-64542200D01*
X136714285Y-64542200D02*
X136761904Y-64494580D01*
X136761904Y-64494580D02*
X136809523Y-64399342D01*
X136809523Y-64399342D02*
X136809523Y-64304104D01*
X136809523Y-64304104D02*
X136761904Y-64208866D01*
X136761904Y-64208866D02*
X136714285Y-64161247D01*
X136714285Y-64161247D02*
X136619047Y-64113628D01*
X136619047Y-64113628D02*
X136428571Y-64066009D01*
X136428571Y-64066009D02*
X136333333Y-64018390D01*
X136333333Y-64018390D02*
X136285714Y-63970771D01*
X136285714Y-63970771D02*
X136238095Y-63875533D01*
X136238095Y-63875533D02*
X136238095Y-63780295D01*
X136238095Y-63780295D02*
X136285714Y-63685057D01*
X136285714Y-63685057D02*
X136333333Y-63637438D01*
X136333333Y-63637438D02*
X136428571Y-63589819D01*
X136428571Y-63589819D02*
X136666666Y-63589819D01*
X136666666Y-63589819D02*
X136809523Y-63637438D01*
X137571428Y-64066009D02*
X137714285Y-64113628D01*
X137714285Y-64113628D02*
X137761904Y-64161247D01*
X137761904Y-64161247D02*
X137809523Y-64256485D01*
X137809523Y-64256485D02*
X137809523Y-64399342D01*
X137809523Y-64399342D02*
X137761904Y-64494580D01*
X137761904Y-64494580D02*
X137714285Y-64542200D01*
X137714285Y-64542200D02*
X137619047Y-64589819D01*
X137619047Y-64589819D02*
X137238095Y-64589819D01*
X137238095Y-64589819D02*
X137238095Y-63589819D01*
X137238095Y-63589819D02*
X137571428Y-63589819D01*
X137571428Y-63589819D02*
X137666666Y-63637438D01*
X137666666Y-63637438D02*
X137714285Y-63685057D01*
X137714285Y-63685057D02*
X137761904Y-63780295D01*
X137761904Y-63780295D02*
X137761904Y-63875533D01*
X137761904Y-63875533D02*
X137714285Y-63970771D01*
X137714285Y-63970771D02*
X137666666Y-64018390D01*
X137666666Y-64018390D02*
X137571428Y-64066009D01*
X137571428Y-64066009D02*
X137238095Y-64066009D01*
X138666666Y-63923152D02*
X138666666Y-64589819D01*
X138428571Y-63542200D02*
X138190476Y-64256485D01*
X138190476Y-64256485D02*
X138809523Y-64256485D01*
X139714285Y-64589819D02*
X139142857Y-64589819D01*
X139428571Y-64589819D02*
X139428571Y-63589819D01*
X139428571Y-63589819D02*
X139333333Y-63732676D01*
X139333333Y-63732676D02*
X139238095Y-63827914D01*
X139238095Y-63827914D02*
X139142857Y-63875533D01*
X140333333Y-63589819D02*
X140428571Y-63589819D01*
X140428571Y-63589819D02*
X140523809Y-63637438D01*
X140523809Y-63637438D02*
X140571428Y-63685057D01*
X140571428Y-63685057D02*
X140619047Y-63780295D01*
X140619047Y-63780295D02*
X140666666Y-63970771D01*
X140666666Y-63970771D02*
X140666666Y-64208866D01*
X140666666Y-64208866D02*
X140619047Y-64399342D01*
X140619047Y-64399342D02*
X140571428Y-64494580D01*
X140571428Y-64494580D02*
X140523809Y-64542200D01*
X140523809Y-64542200D02*
X140428571Y-64589819D01*
X140428571Y-64589819D02*
X140333333Y-64589819D01*
X140333333Y-64589819D02*
X140238095Y-64542200D01*
X140238095Y-64542200D02*
X140190476Y-64494580D01*
X140190476Y-64494580D02*
X140142857Y-64399342D01*
X140142857Y-64399342D02*
X140095238Y-64208866D01*
X140095238Y-64208866D02*
X140095238Y-63970771D01*
X140095238Y-63970771D02*
X140142857Y-63780295D01*
X140142857Y-63780295D02*
X140190476Y-63685057D01*
X140190476Y-63685057D02*
X140238095Y-63637438D01*
X140238095Y-63637438D02*
X140333333Y-63589819D01*
X141571428Y-63589819D02*
X141095238Y-63589819D01*
X141095238Y-63589819D02*
X141047619Y-64066009D01*
X141047619Y-64066009D02*
X141095238Y-64018390D01*
X141095238Y-64018390D02*
X141190476Y-63970771D01*
X141190476Y-63970771D02*
X141428571Y-63970771D01*
X141428571Y-63970771D02*
X141523809Y-64018390D01*
X141523809Y-64018390D02*
X141571428Y-64066009D01*
X141571428Y-64066009D02*
X141619047Y-64161247D01*
X141619047Y-64161247D02*
X141619047Y-64399342D01*
X141619047Y-64399342D02*
X141571428Y-64494580D01*
X141571428Y-64494580D02*
X141523809Y-64542200D01*
X141523809Y-64542200D02*
X141428571Y-64589819D01*
X141428571Y-64589819D02*
X141190476Y-64589819D01*
X141190476Y-64589819D02*
X141095238Y-64542200D01*
X141095238Y-64542200D02*
X141047619Y-64494580D01*
X142047619Y-64208866D02*
X142809524Y-64208866D01*
X143809523Y-63637438D02*
X143714285Y-63589819D01*
X143714285Y-63589819D02*
X143571428Y-63589819D01*
X143571428Y-63589819D02*
X143428571Y-63637438D01*
X143428571Y-63637438D02*
X143333333Y-63732676D01*
X143333333Y-63732676D02*
X143285714Y-63827914D01*
X143285714Y-63827914D02*
X143238095Y-64018390D01*
X143238095Y-64018390D02*
X143238095Y-64161247D01*
X143238095Y-64161247D02*
X143285714Y-64351723D01*
X143285714Y-64351723D02*
X143333333Y-64446961D01*
X143333333Y-64446961D02*
X143428571Y-64542200D01*
X143428571Y-64542200D02*
X143571428Y-64589819D01*
X143571428Y-64589819D02*
X143666666Y-64589819D01*
X143666666Y-64589819D02*
X143809523Y-64542200D01*
X143809523Y-64542200D02*
X143857142Y-64494580D01*
X143857142Y-64494580D02*
X143857142Y-64161247D01*
X143857142Y-64161247D02*
X143666666Y-64161247D01*
X144619047Y-64066009D02*
X144285714Y-64066009D01*
X144285714Y-64589819D02*
X144285714Y-63589819D01*
X144285714Y-63589819D02*
X144761904Y-63589819D01*
X145142857Y-64208866D02*
X145904762Y-64208866D01*
X146333333Y-64304104D02*
X146809523Y-64304104D01*
X146238095Y-64589819D02*
X146571428Y-63589819D01*
X146571428Y-63589819D02*
X146904761Y-64589819D01*
D10*
D11*
X158613333Y-71930057D02*
X158518095Y-71882438D01*
X158518095Y-71882438D02*
X158422857Y-71787200D01*
X158422857Y-71787200D02*
X158280000Y-71644342D01*
X158280000Y-71644342D02*
X158184762Y-71596723D01*
X158184762Y-71596723D02*
X158089524Y-71596723D01*
X158137143Y-71834819D02*
X158041905Y-71787200D01*
X158041905Y-71787200D02*
X157946667Y-71691961D01*
X157946667Y-71691961D02*
X157899048Y-71501485D01*
X157899048Y-71501485D02*
X157899048Y-71168152D01*
X157899048Y-71168152D02*
X157946667Y-70977676D01*
X157946667Y-70977676D02*
X158041905Y-70882438D01*
X158041905Y-70882438D02*
X158137143Y-70834819D01*
X158137143Y-70834819D02*
X158327619Y-70834819D01*
X158327619Y-70834819D02*
X158422857Y-70882438D01*
X158422857Y-70882438D02*
X158518095Y-70977676D01*
X158518095Y-70977676D02*
X158565714Y-71168152D01*
X158565714Y-71168152D02*
X158565714Y-71501485D01*
X158565714Y-71501485D02*
X158518095Y-71691961D01*
X158518095Y-71691961D02*
X158422857Y-71787200D01*
X158422857Y-71787200D02*
X158327619Y-71834819D01*
X158327619Y-71834819D02*
X158137143Y-71834819D01*
X158994286Y-70834819D02*
X158994286Y-71644342D01*
X158994286Y-71644342D02*
X159041905Y-71739580D01*
X159041905Y-71739580D02*
X159089524Y-71787200D01*
X159089524Y-71787200D02*
X159184762Y-71834819D01*
X159184762Y-71834819D02*
X159375238Y-71834819D01*
X159375238Y-71834819D02*
X159470476Y-71787200D01*
X159470476Y-71787200D02*
X159518095Y-71739580D01*
X159518095Y-71739580D02*
X159565714Y-71644342D01*
X159565714Y-71644342D02*
X159565714Y-70834819D01*
X159994286Y-71549104D02*
X160470476Y-71549104D01*
X159899048Y-71834819D02*
X160232381Y-70834819D01*
X160232381Y-70834819D02*
X160565714Y-71834819D01*
X160899048Y-71834819D02*
X160899048Y-70834819D01*
X160899048Y-70834819D02*
X161137143Y-70834819D01*
X161137143Y-70834819D02*
X161280000Y-70882438D01*
X161280000Y-70882438D02*
X161375238Y-70977676D01*
X161375238Y-70977676D02*
X161422857Y-71072914D01*
X161422857Y-71072914D02*
X161470476Y-71263390D01*
X161470476Y-71263390D02*
X161470476Y-71406247D01*
X161470476Y-71406247D02*
X161422857Y-71596723D01*
X161422857Y-71596723D02*
X161375238Y-71691961D01*
X161375238Y-71691961D02*
X161280000Y-71787200D01*
X161280000Y-71787200D02*
X161137143Y-71834819D01*
X161137143Y-71834819D02*
X160899048Y-71834819D01*
X162803810Y-71263390D02*
X162708572Y-71215771D01*
X162708572Y-71215771D02*
X162660953Y-71168152D01*
X162660953Y-71168152D02*
X162613334Y-71072914D01*
X162613334Y-71072914D02*
X162613334Y-71025295D01*
X162613334Y-71025295D02*
X162660953Y-70930057D01*
X162660953Y-70930057D02*
X162708572Y-70882438D01*
X162708572Y-70882438D02*
X162803810Y-70834819D01*
X162803810Y-70834819D02*
X162994286Y-70834819D01*
X162994286Y-70834819D02*
X163089524Y-70882438D01*
X163089524Y-70882438D02*
X163137143Y-70930057D01*
X163137143Y-70930057D02*
X163184762Y-71025295D01*
X163184762Y-71025295D02*
X163184762Y-71072914D01*
X163184762Y-71072914D02*
X163137143Y-71168152D01*
X163137143Y-71168152D02*
X163089524Y-71215771D01*
X163089524Y-71215771D02*
X162994286Y-71263390D01*
X162994286Y-71263390D02*
X162803810Y-71263390D01*
X162803810Y-71263390D02*
X162708572Y-71311009D01*
X162708572Y-71311009D02*
X162660953Y-71358628D01*
X162660953Y-71358628D02*
X162613334Y-71453866D01*
X162613334Y-71453866D02*
X162613334Y-71644342D01*
X162613334Y-71644342D02*
X162660953Y-71739580D01*
X162660953Y-71739580D02*
X162708572Y-71787200D01*
X162708572Y-71787200D02*
X162803810Y-71834819D01*
X162803810Y-71834819D02*
X162994286Y-71834819D01*
X162994286Y-71834819D02*
X163089524Y-71787200D01*
X163089524Y-71787200D02*
X163137143Y-71739580D01*
X163137143Y-71739580D02*
X163184762Y-71644342D01*
X163184762Y-71644342D02*
X163184762Y-71453866D01*
X163184762Y-71453866D02*
X163137143Y-71358628D01*
X163137143Y-71358628D02*
X163089524Y-71311009D01*
X163089524Y-71311009D02*
X162994286Y-71263390D01*
X163565715Y-71787200D02*
X163708572Y-71834819D01*
X163708572Y-71834819D02*
X163946667Y-71834819D01*
X163946667Y-71834819D02*
X164041905Y-71787200D01*
X164041905Y-71787200D02*
X164089524Y-71739580D01*
X164089524Y-71739580D02*
X164137143Y-71644342D01*
X164137143Y-71644342D02*
X164137143Y-71549104D01*
X164137143Y-71549104D02*
X164089524Y-71453866D01*
X164089524Y-71453866D02*
X164041905Y-71406247D01*
X164041905Y-71406247D02*
X163946667Y-71358628D01*
X163946667Y-71358628D02*
X163756191Y-71311009D01*
X163756191Y-71311009D02*
X163660953Y-71263390D01*
X163660953Y-71263390D02*
X163613334Y-71215771D01*
X163613334Y-71215771D02*
X163565715Y-71120533D01*
X163565715Y-71120533D02*
X163565715Y-71025295D01*
X163565715Y-71025295D02*
X163613334Y-70930057D01*
X163613334Y-70930057D02*
X163660953Y-70882438D01*
X163660953Y-70882438D02*
X163756191Y-70834819D01*
X163756191Y-70834819D02*
X163994286Y-70834819D01*
X163994286Y-70834819D02*
X164137143Y-70882438D01*
X164756191Y-70834819D02*
X164946667Y-70834819D01*
X164946667Y-70834819D02*
X165041905Y-70882438D01*
X165041905Y-70882438D02*
X165137143Y-70977676D01*
X165137143Y-70977676D02*
X165184762Y-71168152D01*
X165184762Y-71168152D02*
X165184762Y-71501485D01*
X165184762Y-71501485D02*
X165137143Y-71691961D01*
X165137143Y-71691961D02*
X165041905Y-71787200D01*
X165041905Y-71787200D02*
X164946667Y-71834819D01*
X164946667Y-71834819D02*
X164756191Y-71834819D01*
X164756191Y-71834819D02*
X164660953Y-71787200D01*
X164660953Y-71787200D02*
X164565715Y-71691961D01*
X164565715Y-71691961D02*
X164518096Y-71501485D01*
X164518096Y-71501485D02*
X164518096Y-71168152D01*
X164518096Y-71168152D02*
X164565715Y-70977676D01*
X164565715Y-70977676D02*
X164660953Y-70882438D01*
X164660953Y-70882438D02*
X164756191Y-70834819D01*
X165613334Y-71834819D02*
X165613334Y-70834819D01*
X166660952Y-71739580D02*
X166613333Y-71787200D01*
X166613333Y-71787200D02*
X166470476Y-71834819D01*
X166470476Y-71834819D02*
X166375238Y-71834819D01*
X166375238Y-71834819D02*
X166232381Y-71787200D01*
X166232381Y-71787200D02*
X166137143Y-71691961D01*
X166137143Y-71691961D02*
X166089524Y-71596723D01*
X166089524Y-71596723D02*
X166041905Y-71406247D01*
X166041905Y-71406247D02*
X166041905Y-71263390D01*
X166041905Y-71263390D02*
X166089524Y-71072914D01*
X166089524Y-71072914D02*
X166137143Y-70977676D01*
X166137143Y-70977676D02*
X166232381Y-70882438D01*
X166232381Y-70882438D02*
X166375238Y-70834819D01*
X166375238Y-70834819D02*
X166470476Y-70834819D01*
X166470476Y-70834819D02*
X166613333Y-70882438D01*
X166613333Y-70882438D02*
X166660952Y-70930057D01*
D10*
D11*
X117233333Y-65654819D02*
X116661905Y-65654819D01*
X116947619Y-65654819D02*
X116947619Y-64654819D01*
X116947619Y-64654819D02*
X116852381Y-64797676D01*
X116852381Y-64797676D02*
X116757143Y-64892914D01*
X116757143Y-64892914D02*
X116661905Y-64940533D01*
X118090476Y-64654819D02*
X117900000Y-64654819D01*
X117900000Y-64654819D02*
X117804762Y-64702438D01*
X117804762Y-64702438D02*
X117757143Y-64750057D01*
X117757143Y-64750057D02*
X117661905Y-64892914D01*
X117661905Y-64892914D02*
X117614286Y-65083390D01*
X117614286Y-65083390D02*
X117614286Y-65464342D01*
X117614286Y-65464342D02*
X117661905Y-65559580D01*
X117661905Y-65559580D02*
X117709524Y-65607200D01*
X117709524Y-65607200D02*
X117804762Y-65654819D01*
X117804762Y-65654819D02*
X117995238Y-65654819D01*
X117995238Y-65654819D02*
X118090476Y-65607200D01*
X118090476Y-65607200D02*
X118138095Y-65559580D01*
X118138095Y-65559580D02*
X118185714Y-65464342D01*
X118185714Y-65464342D02*
X118185714Y-65226247D01*
X118185714Y-65226247D02*
X118138095Y-65131009D01*
X118138095Y-65131009D02*
X118090476Y-65083390D01*
X118090476Y-65083390D02*
X117995238Y-65035771D01*
X117995238Y-65035771D02*
X117804762Y-65035771D01*
X117804762Y-65035771D02*
X117709524Y-65083390D01*
X117709524Y-65083390D02*
X117661905Y-65131009D01*
X117661905Y-65131009D02*
X117614286Y-65226247D01*
X118566667Y-65607200D02*
X118709524Y-65654819D01*
X118709524Y-65654819D02*
X118947619Y-65654819D01*
X118947619Y-65654819D02*
X119042857Y-65607200D01*
X119042857Y-65607200D02*
X119090476Y-65559580D01*
X119090476Y-65559580D02*
X119138095Y-65464342D01*
X119138095Y-65464342D02*
X119138095Y-65369104D01*
X119138095Y-65369104D02*
X119090476Y-65273866D01*
X119090476Y-65273866D02*
X119042857Y-65226247D01*
X119042857Y-65226247D02*
X118947619Y-65178628D01*
X118947619Y-65178628D02*
X118757143Y-65131009D01*
X118757143Y-65131009D02*
X118661905Y-65083390D01*
X118661905Y-65083390D02*
X118614286Y-65035771D01*
X118614286Y-65035771D02*
X118566667Y-64940533D01*
X118566667Y-64940533D02*
X118566667Y-64845295D01*
X118566667Y-64845295D02*
X118614286Y-64750057D01*
X118614286Y-64750057D02*
X118661905Y-64702438D01*
X118661905Y-64702438D02*
X118757143Y-64654819D01*
X118757143Y-64654819D02*
X118995238Y-64654819D01*
X118995238Y-64654819D02*
X119138095Y-64702438D01*
X119519048Y-65607200D02*
X119661905Y-65654819D01*
X119661905Y-65654819D02*
X119900000Y-65654819D01*
X119900000Y-65654819D02*
X119995238Y-65607200D01*
X119995238Y-65607200D02*
X120042857Y-65559580D01*
X120042857Y-65559580D02*
X120090476Y-65464342D01*
X120090476Y-65464342D02*
X120090476Y-65369104D01*
X120090476Y-65369104D02*
X120042857Y-65273866D01*
X120042857Y-65273866D02*
X119995238Y-65226247D01*
X119995238Y-65226247D02*
X119900000Y-65178628D01*
X119900000Y-65178628D02*
X119709524Y-65131009D01*
X119709524Y-65131009D02*
X119614286Y-65083390D01*
X119614286Y-65083390D02*
X119566667Y-65035771D01*
X119566667Y-65035771D02*
X119519048Y-64940533D01*
X119519048Y-64940533D02*
X119519048Y-64845295D01*
X119519048Y-64845295D02*
X119566667Y-64750057D01*
X119566667Y-64750057D02*
X119614286Y-64702438D01*
X119614286Y-64702438D02*
X119709524Y-64654819D01*
X119709524Y-64654819D02*
X119947619Y-64654819D01*
X119947619Y-64654819D02*
X120090476Y-64702438D01*
X120709524Y-64654819D02*
X120900000Y-64654819D01*
X120900000Y-64654819D02*
X120995238Y-64702438D01*
X120995238Y-64702438D02*
X121090476Y-64797676D01*
X121090476Y-64797676D02*
X121138095Y-64988152D01*
X121138095Y-64988152D02*
X121138095Y-65321485D01*
X121138095Y-65321485D02*
X121090476Y-65511961D01*
X121090476Y-65511961D02*
X120995238Y-65607200D01*
X120995238Y-65607200D02*
X120900000Y-65654819D01*
X120900000Y-65654819D02*
X120709524Y-65654819D01*
X120709524Y-65654819D02*
X120614286Y-65607200D01*
X120614286Y-65607200D02*
X120519048Y-65511961D01*
X120519048Y-65511961D02*
X120471429Y-65321485D01*
X120471429Y-65321485D02*
X120471429Y-64988152D01*
X120471429Y-64988152D02*
X120519048Y-64797676D01*
X120519048Y-64797676D02*
X120614286Y-64702438D01*
X120614286Y-64702438D02*
X120709524Y-64654819D01*
X121566667Y-65654819D02*
X121566667Y-64654819D01*
X121566667Y-64654819D02*
X121947619Y-64654819D01*
X121947619Y-64654819D02*
X122042857Y-64702438D01*
X122042857Y-64702438D02*
X122090476Y-64750057D01*
X122090476Y-64750057D02*
X122138095Y-64845295D01*
X122138095Y-64845295D02*
X122138095Y-64988152D01*
X122138095Y-64988152D02*
X122090476Y-65083390D01*
X122090476Y-65083390D02*
X122042857Y-65131009D01*
X122042857Y-65131009D02*
X121947619Y-65178628D01*
X121947619Y-65178628D02*
X121566667Y-65178628D01*
D10*
D11*
X174368096Y-76147200D02*
X174510953Y-76194819D01*
X174510953Y-76194819D02*
X174749048Y-76194819D01*
X174749048Y-76194819D02*
X174844286Y-76147200D01*
X174844286Y-76147200D02*
X174891905Y-76099580D01*
X174891905Y-76099580D02*
X174939524Y-76004342D01*
X174939524Y-76004342D02*
X174939524Y-75909104D01*
X174939524Y-75909104D02*
X174891905Y-75813866D01*
X174891905Y-75813866D02*
X174844286Y-75766247D01*
X174844286Y-75766247D02*
X174749048Y-75718628D01*
X174749048Y-75718628D02*
X174558572Y-75671009D01*
X174558572Y-75671009D02*
X174463334Y-75623390D01*
X174463334Y-75623390D02*
X174415715Y-75575771D01*
X174415715Y-75575771D02*
X174368096Y-75480533D01*
X174368096Y-75480533D02*
X174368096Y-75385295D01*
X174368096Y-75385295D02*
X174415715Y-75290057D01*
X174415715Y-75290057D02*
X174463334Y-75242438D01*
X174463334Y-75242438D02*
X174558572Y-75194819D01*
X174558572Y-75194819D02*
X174796667Y-75194819D01*
X174796667Y-75194819D02*
X174939524Y-75242438D01*
X175368096Y-76194819D02*
X175368096Y-75194819D01*
X175368096Y-75671009D02*
X175939524Y-75671009D01*
X175939524Y-76194819D02*
X175939524Y-75194819D01*
X176272858Y-75194819D02*
X176844286Y-75194819D01*
X176558572Y-76194819D02*
X176558572Y-75194819D01*
X177082382Y-75194819D02*
X177701429Y-75194819D01*
X177701429Y-75194819D02*
X177368096Y-75575771D01*
X177368096Y-75575771D02*
X177510953Y-75575771D01*
X177510953Y-75575771D02*
X177606191Y-75623390D01*
X177606191Y-75623390D02*
X177653810Y-75671009D01*
X177653810Y-75671009D02*
X177701429Y-75766247D01*
X177701429Y-75766247D02*
X177701429Y-76004342D01*
X177701429Y-76004342D02*
X177653810Y-76099580D01*
X177653810Y-76099580D02*
X177606191Y-76147200D01*
X177606191Y-76147200D02*
X177510953Y-76194819D01*
X177510953Y-76194819D02*
X177225239Y-76194819D01*
X177225239Y-76194819D02*
X177130001Y-76147200D01*
X177130001Y-76147200D02*
X177082382Y-76099580D01*
X178320477Y-75194819D02*
X178415715Y-75194819D01*
X178415715Y-75194819D02*
X178510953Y-75242438D01*
X178510953Y-75242438D02*
X178558572Y-75290057D01*
X178558572Y-75290057D02*
X178606191Y-75385295D01*
X178606191Y-75385295D02*
X178653810Y-75575771D01*
X178653810Y-75575771D02*
X178653810Y-75813866D01*
X178653810Y-75813866D02*
X178606191Y-76004342D01*
X178606191Y-76004342D02*
X178558572Y-76099580D01*
X178558572Y-76099580D02*
X178510953Y-76147200D01*
X178510953Y-76147200D02*
X178415715Y-76194819D01*
X178415715Y-76194819D02*
X178320477Y-76194819D01*
X178320477Y-76194819D02*
X178225239Y-76147200D01*
X178225239Y-76147200D02*
X178177620Y-76099580D01*
X178177620Y-76099580D02*
X178130001Y-76004342D01*
X178130001Y-76004342D02*
X178082382Y-75813866D01*
X178082382Y-75813866D02*
X178082382Y-75575771D01*
X178082382Y-75575771D02*
X178130001Y-75385295D01*
X178130001Y-75385295D02*
X178177620Y-75290057D01*
X178177620Y-75290057D02*
X178225239Y-75242438D01*
X178225239Y-75242438D02*
X178320477Y-75194819D01*
X179082382Y-75813866D02*
X179844287Y-75813866D01*
X180320477Y-76194819D02*
X180320477Y-75194819D01*
X180320477Y-75194819D02*
X180558572Y-75194819D01*
X180558572Y-75194819D02*
X180701429Y-75242438D01*
X180701429Y-75242438D02*
X180796667Y-75337676D01*
X180796667Y-75337676D02*
X180844286Y-75432914D01*
X180844286Y-75432914D02*
X180891905Y-75623390D01*
X180891905Y-75623390D02*
X180891905Y-75766247D01*
X180891905Y-75766247D02*
X180844286Y-75956723D01*
X180844286Y-75956723D02*
X180796667Y-76051961D01*
X180796667Y-76051961D02*
X180701429Y-76147200D01*
X180701429Y-76147200D02*
X180558572Y-76194819D01*
X180558572Y-76194819D02*
X180320477Y-76194819D01*
X181320477Y-76194819D02*
X181320477Y-75194819D01*
X181749048Y-76147200D02*
X181891905Y-76194819D01*
X181891905Y-76194819D02*
X182130000Y-76194819D01*
X182130000Y-76194819D02*
X182225238Y-76147200D01*
X182225238Y-76147200D02*
X182272857Y-76099580D01*
X182272857Y-76099580D02*
X182320476Y-76004342D01*
X182320476Y-76004342D02*
X182320476Y-75909104D01*
X182320476Y-75909104D02*
X182272857Y-75813866D01*
X182272857Y-75813866D02*
X182225238Y-75766247D01*
X182225238Y-75766247D02*
X182130000Y-75718628D01*
X182130000Y-75718628D02*
X181939524Y-75671009D01*
X181939524Y-75671009D02*
X181844286Y-75623390D01*
X181844286Y-75623390D02*
X181796667Y-75575771D01*
X181796667Y-75575771D02*
X181749048Y-75480533D01*
X181749048Y-75480533D02*
X181749048Y-75385295D01*
X181749048Y-75385295D02*
X181796667Y-75290057D01*
X181796667Y-75290057D02*
X181844286Y-75242438D01*
X181844286Y-75242438D02*
X181939524Y-75194819D01*
X181939524Y-75194819D02*
X182177619Y-75194819D01*
X182177619Y-75194819D02*
X182320476Y-75242438D01*
X182749048Y-75813866D02*
X183510953Y-75813866D01*
X184320476Y-75671009D02*
X184463333Y-75718628D01*
X184463333Y-75718628D02*
X184510952Y-75766247D01*
X184510952Y-75766247D02*
X184558571Y-75861485D01*
X184558571Y-75861485D02*
X184558571Y-76004342D01*
X184558571Y-76004342D02*
X184510952Y-76099580D01*
X184510952Y-76099580D02*
X184463333Y-76147200D01*
X184463333Y-76147200D02*
X184368095Y-76194819D01*
X184368095Y-76194819D02*
X183987143Y-76194819D01*
X183987143Y-76194819D02*
X183987143Y-75194819D01*
X183987143Y-75194819D02*
X184320476Y-75194819D01*
X184320476Y-75194819D02*
X184415714Y-75242438D01*
X184415714Y-75242438D02*
X184463333Y-75290057D01*
X184463333Y-75290057D02*
X184510952Y-75385295D01*
X184510952Y-75385295D02*
X184510952Y-75480533D01*
X184510952Y-75480533D02*
X184463333Y-75575771D01*
X184463333Y-75575771D02*
X184415714Y-75623390D01*
X184415714Y-75623390D02*
X184320476Y-75671009D01*
X184320476Y-75671009D02*
X183987143Y-75671009D01*
X184939524Y-75290057D02*
X184987143Y-75242438D01*
X184987143Y-75242438D02*
X185082381Y-75194819D01*
X185082381Y-75194819D02*
X185320476Y-75194819D01*
X185320476Y-75194819D02*
X185415714Y-75242438D01*
X185415714Y-75242438D02*
X185463333Y-75290057D01*
X185463333Y-75290057D02*
X185510952Y-75385295D01*
X185510952Y-75385295D02*
X185510952Y-75480533D01*
X185510952Y-75480533D02*
X185463333Y-75623390D01*
X185463333Y-75623390D02*
X184891905Y-76194819D01*
X184891905Y-76194819D02*
X185510952Y-76194819D01*
X185939524Y-76099580D02*
X185987143Y-76147200D01*
X185987143Y-76147200D02*
X185939524Y-76194819D01*
X185939524Y-76194819D02*
X185891905Y-76147200D01*
X185891905Y-76147200D02*
X185939524Y-76099580D01*
X185939524Y-76099580D02*
X185939524Y-76194819D01*
X186891904Y-75194819D02*
X186415714Y-75194819D01*
X186415714Y-75194819D02*
X186368095Y-75671009D01*
X186368095Y-75671009D02*
X186415714Y-75623390D01*
X186415714Y-75623390D02*
X186510952Y-75575771D01*
X186510952Y-75575771D02*
X186749047Y-75575771D01*
X186749047Y-75575771D02*
X186844285Y-75623390D01*
X186844285Y-75623390D02*
X186891904Y-75671009D01*
X186891904Y-75671009D02*
X186939523Y-75766247D01*
X186939523Y-75766247D02*
X186939523Y-76004342D01*
X186939523Y-76004342D02*
X186891904Y-76099580D01*
X186891904Y-76099580D02*
X186844285Y-76147200D01*
X186844285Y-76147200D02*
X186749047Y-76194819D01*
X186749047Y-76194819D02*
X186510952Y-76194819D01*
X186510952Y-76194819D02*
X186415714Y-76147200D01*
X186415714Y-76147200D02*
X186368095Y-76099580D01*
X187368095Y-76194819D02*
X187368095Y-75194819D01*
X187939523Y-76194819D02*
X187510952Y-75623390D01*
X187939523Y-75194819D02*
X187368095Y-75766247D01*
X188320476Y-76147200D02*
X188463333Y-76194819D01*
X188463333Y-76194819D02*
X188701428Y-76194819D01*
X188701428Y-76194819D02*
X188796666Y-76147200D01*
X188796666Y-76147200D02*
X188844285Y-76099580D01*
X188844285Y-76099580D02*
X188891904Y-76004342D01*
X188891904Y-76004342D02*
X188891904Y-75909104D01*
X188891904Y-75909104D02*
X188844285Y-75813866D01*
X188844285Y-75813866D02*
X188796666Y-75766247D01*
X188796666Y-75766247D02*
X188701428Y-75718628D01*
X188701428Y-75718628D02*
X188510952Y-75671009D01*
X188510952Y-75671009D02*
X188415714Y-75623390D01*
X188415714Y-75623390D02*
X188368095Y-75575771D01*
X188368095Y-75575771D02*
X188320476Y-75480533D01*
X188320476Y-75480533D02*
X188320476Y-75385295D01*
X188320476Y-75385295D02*
X188368095Y-75290057D01*
X188368095Y-75290057D02*
X188415714Y-75242438D01*
X188415714Y-75242438D02*
X188510952Y-75194819D01*
X188510952Y-75194819D02*
X188749047Y-75194819D01*
X188749047Y-75194819D02*
X188891904Y-75242438D01*
D10*
D11*
X158785714Y-81854819D02*
X159357142Y-81854819D01*
X159071428Y-82854819D02*
X159071428Y-81854819D01*
X159642857Y-82807200D02*
X159785714Y-82854819D01*
X159785714Y-82854819D02*
X160023809Y-82854819D01*
X160023809Y-82854819D02*
X160119047Y-82807200D01*
X160119047Y-82807200D02*
X160166666Y-82759580D01*
X160166666Y-82759580D02*
X160214285Y-82664342D01*
X160214285Y-82664342D02*
X160214285Y-82569104D01*
X160214285Y-82569104D02*
X160166666Y-82473866D01*
X160166666Y-82473866D02*
X160119047Y-82426247D01*
X160119047Y-82426247D02*
X160023809Y-82378628D01*
X160023809Y-82378628D02*
X159833333Y-82331009D01*
X159833333Y-82331009D02*
X159738095Y-82283390D01*
X159738095Y-82283390D02*
X159690476Y-82235771D01*
X159690476Y-82235771D02*
X159642857Y-82140533D01*
X159642857Y-82140533D02*
X159642857Y-82045295D01*
X159642857Y-82045295D02*
X159690476Y-81950057D01*
X159690476Y-81950057D02*
X159738095Y-81902438D01*
X159738095Y-81902438D02*
X159833333Y-81854819D01*
X159833333Y-81854819D02*
X160071428Y-81854819D01*
X160071428Y-81854819D02*
X160214285Y-81902438D01*
X160833333Y-81854819D02*
X161023809Y-81854819D01*
X161023809Y-81854819D02*
X161119047Y-81902438D01*
X161119047Y-81902438D02*
X161214285Y-81997676D01*
X161214285Y-81997676D02*
X161261904Y-82188152D01*
X161261904Y-82188152D02*
X161261904Y-82521485D01*
X161261904Y-82521485D02*
X161214285Y-82711961D01*
X161214285Y-82711961D02*
X161119047Y-82807200D01*
X161119047Y-82807200D02*
X161023809Y-82854819D01*
X161023809Y-82854819D02*
X160833333Y-82854819D01*
X160833333Y-82854819D02*
X160738095Y-82807200D01*
X160738095Y-82807200D02*
X160642857Y-82711961D01*
X160642857Y-82711961D02*
X160595238Y-82521485D01*
X160595238Y-82521485D02*
X160595238Y-82188152D01*
X160595238Y-82188152D02*
X160642857Y-81997676D01*
X160642857Y-81997676D02*
X160738095Y-81902438D01*
X160738095Y-81902438D02*
X160833333Y-81854819D01*
X161547619Y-81854819D02*
X162119047Y-81854819D01*
X161833333Y-82854819D02*
X161833333Y-81854819D01*
X162404762Y-81950057D02*
X162452381Y-81902438D01*
X162452381Y-81902438D02*
X162547619Y-81854819D01*
X162547619Y-81854819D02*
X162785714Y-81854819D01*
X162785714Y-81854819D02*
X162880952Y-81902438D01*
X162880952Y-81902438D02*
X162928571Y-81950057D01*
X162928571Y-81950057D02*
X162976190Y-82045295D01*
X162976190Y-82045295D02*
X162976190Y-82140533D01*
X162976190Y-82140533D02*
X162928571Y-82283390D01*
X162928571Y-82283390D02*
X162357143Y-82854819D01*
X162357143Y-82854819D02*
X162976190Y-82854819D01*
X163309524Y-81854819D02*
X163928571Y-81854819D01*
X163928571Y-81854819D02*
X163595238Y-82235771D01*
X163595238Y-82235771D02*
X163738095Y-82235771D01*
X163738095Y-82235771D02*
X163833333Y-82283390D01*
X163833333Y-82283390D02*
X163880952Y-82331009D01*
X163880952Y-82331009D02*
X163928571Y-82426247D01*
X163928571Y-82426247D02*
X163928571Y-82664342D01*
X163928571Y-82664342D02*
X163880952Y-82759580D01*
X163880952Y-82759580D02*
X163833333Y-82807200D01*
X163833333Y-82807200D02*
X163738095Y-82854819D01*
X163738095Y-82854819D02*
X163452381Y-82854819D01*
X163452381Y-82854819D02*
X163357143Y-82807200D01*
X163357143Y-82807200D02*
X163309524Y-82759580D01*
X164357143Y-82473866D02*
X165119048Y-82473866D01*
X166023809Y-81854819D02*
X165833333Y-81854819D01*
X165833333Y-81854819D02*
X165738095Y-81902438D01*
X165738095Y-81902438D02*
X165690476Y-81950057D01*
X165690476Y-81950057D02*
X165595238Y-82092914D01*
X165595238Y-82092914D02*
X165547619Y-82283390D01*
X165547619Y-82283390D02*
X165547619Y-82664342D01*
X165547619Y-82664342D02*
X165595238Y-82759580D01*
X165595238Y-82759580D02*
X165642857Y-82807200D01*
X165642857Y-82807200D02*
X165738095Y-82854819D01*
X165738095Y-82854819D02*
X165928571Y-82854819D01*
X165928571Y-82854819D02*
X166023809Y-82807200D01*
X166023809Y-82807200D02*
X166071428Y-82759580D01*
X166071428Y-82759580D02*
X166119047Y-82664342D01*
X166119047Y-82664342D02*
X166119047Y-82426247D01*
X166119047Y-82426247D02*
X166071428Y-82331009D01*
X166071428Y-82331009D02*
X166023809Y-82283390D01*
X166023809Y-82283390D02*
X165928571Y-82235771D01*
X165928571Y-82235771D02*
X165738095Y-82235771D01*
X165738095Y-82235771D02*
X165642857Y-82283390D01*
X165642857Y-82283390D02*
X165595238Y-82331009D01*
X165595238Y-82331009D02*
X165547619Y-82426247D01*
D12*
%TO.P,C3,1*%
%TO.N,N/C*%
X180186500Y-64897000D03*
%TO.P,C3,2*%
X178461500Y-64897000D03*
%TD*%
D13*
%TO.P,C3,1*%
%TO.N,N/C*%
X156845000Y-69950500D03*
%TO.P,C3,2*%
X156845000Y-68225500D03*
%TD*%
%TO.P,C3,1*%
%TO.N,N/C*%
X166751000Y-80618500D03*
%TO.P,C3,2*%
X166751000Y-78893500D03*
%TD*%
D14*
%TO.P,C3,1*%
%TO.N,N/C*%
X118263500Y-68199000D03*
%TO.P,C3,2*%
X119988500Y-68199000D03*
%TD*%
D15*
%TO.P,,2*%
%TO.N,N/C*%
X132080000Y-63500000D03*
%TD*%
%TO.P,,2*%
%TO.N,N/C*%
X149860000Y-63627000D03*
%TD*%
%TO.P,,2*%
%TO.N,N/C*%
X173990000Y-71120000D03*
%TD*%
%TO.P,,2*%
%TO.N,N/C*%
X132190000Y-73660000D03*
%TD*%
%TO.P,,2*%
%TO.N,N/C*%
X132080000Y-66040000D03*
%TD*%
%TO.P,,2*%
%TO.N,N/C*%
X189230000Y-66040000D03*
%TD*%
%TO.P,,2*%
%TO.N,N/C*%
X111760000Y-73660000D03*
%TD*%
D16*
%TO.P,USB4105-GF-A,S1,SHIELD*%
%TO.N,N/C*%
X145400000Y-77575000D03*
D17*
X145400000Y-73395000D03*
D16*
X136760000Y-77575000D03*
D17*
X136760000Y-73395000D03*
D18*
%TO.P,USB4105-GF-A,B12,GND*%
X137880000Y-72820000D03*
%TO.P,USB4105-GF-A,B9,VBUS*%
X138680000Y-72820000D03*
D19*
%TO.P,USB4105-GF-A,B8*%
X139330000Y-72820000D03*
%TO.P,USB4105-GF-A,B7,D-*%
X140330000Y-72820000D03*
%TO.P,USB4105-GF-A,B6,D+*%
X141830000Y-72820000D03*
%TO.P,USB4105-GF-A,B5,CC2*%
X142830000Y-72820000D03*
D18*
%TO.P,USB4105-GF-A,B4,VBUS*%
X143480000Y-72820000D03*
%TO.P,USB4105-GF-A,B1,GND*%
X144280000Y-72820000D03*
%TO.P,USB4105-GF-A,A12,GND*%
X144280000Y-72820000D03*
%TO.P,USB4105-GF-A,A9,VBUS*%
X143480000Y-72820000D03*
D19*
%TO.P,USB4105-GF-A,A8*%
X142330000Y-72820000D03*
%TO.P,USB4105-GF-A,A7,D-*%
X141330000Y-72820000D03*
%TO.P,USB4105-GF-A,A6,D+*%
X140830000Y-72820000D03*
%TO.P,USB4105-GF-A,A5,CC1*%
X139830000Y-72820000D03*
D18*
%TO.P,USB4105-GF-A,A4,VBUS*%
X138680000Y-72820000D03*
%TO.P,USB4105-GF-A,A1,GND*%
X137880000Y-72820000D03*
%TD*%
D15*
%TO.P,,2*%
%TO.N,N/C*%
X111760000Y-71120000D03*
%TD*%
%TO.P,,2*%
%TO.N,N/C*%
X154940000Y-78740000D03*
%TD*%
%TO.P,,2*%
%TO.N,N/C*%
X154940000Y-76200000D03*
%TD*%
D20*
%TO.P,QUAD 8SOIC,1,~{CS}*%
%TO.N,N/C*%
X158742500Y-65632500D03*
%TO.P,QUAD 8SOIC,2,DO(IO1)*%
X158742500Y-66902500D03*
%TO.P,QUAD 8SOIC,3,IO2*%
X158742500Y-68172500D03*
%TO.P,QUAD 8SOIC,4,GND*%
X158742500Y-69442500D03*
%TO.P,QUAD 8SOIC,5,DI(IO0)*%
X165942500Y-69442500D03*
%TO.P,QUAD 8SOIC,6,CLK*%
X165942500Y-68172500D03*
%TO.P,QUAD 8SOIC,7,IO3*%
X165942500Y-66902500D03*
%TO.P,QUAD 8SOIC,8,VCC*%
X165942500Y-65632500D03*
%TD*%
D15*
%TO.P,,2*%
%TO.N,N/C*%
X154940000Y-66040000D03*
%TD*%
%TO.P,,2*%
%TO.N,N/C*%
X127000000Y-63500000D03*
%TD*%
%TO.P,,2*%
%TO.N,N/C*%
X132190000Y-76200000D03*
%TD*%
%TO.P,,2*%
%TO.N,N/C*%
X170180000Y-71120000D03*
%TD*%
%TO.P,,2*%
%TO.N,N/C*%
X149860000Y-68580000D03*
%TD*%
%TO.P,,2*%
%TO.N,N/C*%
X170180000Y-68580000D03*
%TD*%
%TO.P,,2*%
%TO.N,N/C*%
X149970000Y-76200000D03*
%TD*%
%TO.P,,2*%
%TO.N,N/C*%
X154940000Y-71120000D03*
%TD*%
%TO.P,,2*%
%TO.N,N/C*%
X170180000Y-76200000D03*
%TD*%
%TO.P,,2*%
%TO.N,N/C*%
X189230000Y-63500000D03*
%TD*%
%TO.P,,2*%
%TO.N,N/C*%
X132190000Y-78740000D03*
%TD*%
%TO.P,,2*%
%TO.N,N/C*%
X170180000Y-63500000D03*
%TD*%
%TO.P,,2*%
%TO.N,N/C*%
X111760000Y-78740000D03*
%TD*%
D21*
%TO.P,16SSOP,1,TXD*%
%TO.N,N/C*%
X116900000Y-70077500D03*
%TO.P,16SSOP,2,~{RTS}*%
X116900000Y-70712500D03*
%TO.P,16SSOP,3,VCCIO*%
X116900000Y-71347500D03*
%TO.P,16SSOP,4,RXD*%
X116900000Y-71982500D03*
%TO.P,16SSOP,5,GND*%
X116900000Y-72617500D03*
%TO.P,16SSOP,6,~{CTS}*%
X116900000Y-73252500D03*
%TO.P,16SSOP,7,CBUS2*%
X116900000Y-73887500D03*
%TO.P,16SSOP,8,USBDP*%
X116900000Y-74522500D03*
%TO.P,16SSOP,9,USBDM*%
X122100000Y-74522500D03*
%TO.P,16SSOP,10,3V3OUT*%
X122100000Y-73887500D03*
%TO.P,16SSOP,11,~{RESET}*%
X122100000Y-73252500D03*
%TO.P,16SSOP,12,VCC*%
X122100000Y-72617500D03*
%TO.P,16SSOP,13,GND*%
X122100000Y-71982500D03*
%TO.P,16SSOP,14,CBUS1*%
X122100000Y-71347500D03*
%TO.P,16SSOP,15,CBUS0*%
X122100000Y-70712500D03*
%TO.P,16SSOP,16,CBUS3*%
X122100000Y-70077500D03*
%TD*%
D15*
%TO.P,,2*%
%TO.N,N/C*%
X154940000Y-81280000D03*
%TD*%
%TO.P,,2*%
%TO.N,N/C*%
X127000000Y-66040000D03*
%TD*%
%TO.P,,2*%
%TO.N,N/C*%
X154940000Y-63500000D03*
%TD*%
%TO.P,,2*%
%TO.N,N/C*%
X149860000Y-66040000D03*
%TD*%
%TO.P,,2*%
%TO.N,N/C*%
X173990000Y-63500000D03*
%TD*%
%TO.P,,2*%
%TO.N,N/C*%
X149970000Y-78740000D03*
%TD*%
%TO.P,,2*%
%TO.N,N/C*%
X111760000Y-68580000D03*
%TD*%
%TO.P,,2*%
%TO.N,N/C*%
X170180000Y-81280000D03*
%TD*%
%TO.P,,2*%
%TO.N,N/C*%
X173990000Y-68580000D03*
%TD*%
%TO.P,,2*%
%TO.N,N/C*%
X132190000Y-71120000D03*
%TD*%
%TO.P,,2*%
%TO.N,N/C*%
X149860000Y-71120000D03*
%TD*%
%TO.P,,2*%
%TO.N,N/C*%
X111760000Y-81280000D03*
%TD*%
%TO.P,,2*%
%TO.N,N/C*%
X170180000Y-66040000D03*
%TD*%
%TO.P,,2*%
%TO.N,N/C*%
X111760000Y-63500000D03*
%TD*%
%TO.P,,2*%
%TO.N,N/C*%
X127000000Y-71120000D03*
%TD*%
%TO.P,,2*%
%TO.N,N/C*%
X189230000Y-73660000D03*
%TD*%
%TO.P,,2*%
%TO.N,N/C*%
X127000000Y-68580000D03*
%TD*%
%TO.P,,2*%
%TO.N,N/C*%
X132190000Y-68580000D03*
%TD*%
D22*
%TO.P,SHT30-DIS-B2.5KS,1,SDA*%
%TO.N,N/C*%
X182452500Y-68172500D03*
%TO.P,SHT30-DIS-B2.5KS,2,ADDR*%
X182452500Y-67672500D03*
%TO.P,SHT30-DIS-B2.5KS,3,ALERT*%
X182452500Y-67172500D03*
%TO.P,SHT30-DIS-B2.5KS,4,SCL*%
X182452500Y-66672500D03*
%TO.P,SHT30-DIS-B2.5KS,5,VDD*%
X180102500Y-66672500D03*
%TO.P,SHT30-DIS-B2.5KS,6,~{RESET}*%
X180102500Y-67172500D03*
%TO.P,SHT30-DIS-B2.5KS,7,R*%
X180102500Y-67672500D03*
%TO.P,SHT30-DIS-B2.5KS,8,VSS*%
X180102500Y-68172500D03*
D23*
%TO.P,SHT30-DIS-B2.5KS,9,VSS*%
X181277500Y-67422500D03*
%TD*%
D15*
%TO.P,,2*%
%TO.N,N/C*%
X127000000Y-76200000D03*
%TD*%
%TO.P,,2*%
%TO.N,N/C*%
X127000000Y-78740000D03*
%TD*%
D24*
%TO.P,TSOT23-6,1,VDD*%
%TO.N,N/C*%
X163277500Y-79370000D03*
%TO.P,TSOT23-6,2,GND*%
X163277500Y-78420000D03*
%TO.P,TSOT23-6,3,DELAY/M_RST*%
X163277500Y-77470000D03*
%TO.P,TSOT23-6,4,DONE*%
X161002500Y-77470000D03*
%TO.P,TSOT23-6,5,WAKE*%
X161002500Y-78420000D03*
%TO.P,TSOT23-6,6,~{RST}*%
X161002500Y-79370000D03*
%TD*%
D15*
%TO.P,,2*%
%TO.N,N/C*%
X189230000Y-68580000D03*
%TD*%
%TO.P,,2*%
%TO.N,N/C*%
X173990000Y-73660000D03*
%TD*%
%TO.P,,2*%
%TO.N,N/C*%
X111760000Y-66040000D03*
%TD*%
%TO.P,,2*%
%TO.N,N/C*%
X173990000Y-66040000D03*
%TD*%
%TO.P,,2*%
%TO.N,N/C*%
X149970000Y-73660000D03*
%TD*%
%TO.P,,2*%
%TO.N,N/C*%
X170180000Y-78740000D03*
%TD*%
%TO.P,,2*%
%TO.N,N/C*%
X154940000Y-68580000D03*
%TD*%
%TO.P,,2*%
%TO.N,N/C*%
X189230000Y-71120000D03*
%TD*%
%TO.P,,2*%
%TO.N,N/C*%
X127000000Y-73660000D03*
%TD*%
%TO.P,,2*%
%TO.N,N/C*%
X127000000Y-81280000D03*
%TD*%
%TO.P,,2*%
%TO.N,N/C*%
X111760000Y-76200000D03*
%TD*%
D25*
%TO.N,*%
X154940000Y-63500000D02*
X156210000Y-63500000D01*
X156210000Y-63500000D02*
X158342500Y-65632500D01*
X158342500Y-65632500D02*
X158742500Y-65632500D01*
X170180000Y-71120000D02*
X168148000Y-71120000D01*
X168148000Y-71120000D02*
X166470500Y-69442500D01*
X166470500Y-69442500D02*
X165942500Y-69442500D01*
X170180000Y-63500000D02*
X168656000Y-63500000D01*
X168656000Y-63500000D02*
X166523500Y-65632500D01*
X166523500Y-65632500D02*
X165942500Y-65632500D01*
X166751000Y-80618500D02*
X164819500Y-80618500D01*
X164819500Y-80618500D02*
X163571000Y-79370000D01*
X163571000Y-79370000D02*
X163277500Y-79370000D01*
X170180000Y-76200000D02*
X164973000Y-76200000D01*
X164973000Y-76200000D02*
X163703000Y-77470000D01*
X163703000Y-77470000D02*
X163277500Y-77470000D01*
X154940000Y-76200000D02*
X159258000Y-76200000D01*
X159258000Y-76200000D02*
X160528000Y-77470000D01*
X160528000Y-77470000D02*
X161002500Y-77470000D01*
X154940000Y-81280000D02*
X158623000Y-81280000D01*
X158623000Y-81280000D02*
X160533000Y-79370000D01*
X160533000Y-79370000D02*
X161002500Y-79370000D01*
X180102500Y-68172500D02*
X180527500Y-68172500D01*
X180527500Y-68172500D02*
X181277500Y-67422500D01*
X180186500Y-64897000D02*
X180975000Y-64897000D01*
X180975000Y-64897000D02*
X181277500Y-65199500D01*
X181277500Y-65199500D02*
X181277500Y-67422500D01*
X173990000Y-63500000D02*
X177038000Y-63500000D01*
X177038000Y-63500000D02*
X178435000Y-64897000D01*
X178813500Y-66672500D02*
X180102500Y-66672500D01*
X178435000Y-64897000D02*
X178435000Y-66294000D01*
X178435000Y-66294000D02*
X178813500Y-66672500D01*
X154940000Y-71120000D02*
X155802500Y-71120000D01*
X155802500Y-71120000D02*
X157480000Y-69442500D01*
X157480000Y-69442500D02*
X158742500Y-69442500D01*
X163277500Y-78420000D02*
X164526000Y-78420000D01*
X164526000Y-78420000D02*
X165100000Y-78994000D01*
X165100000Y-78994000D02*
X169926000Y-78994000D01*
X169926000Y-78994000D02*
X170180000Y-78740000D01*
X170180000Y-81280000D02*
X167412500Y-81280000D01*
X167412500Y-81280000D02*
X166751000Y-80618500D01*
X117755500Y-71347500D02*
X118263500Y-70839500D01*
X118263500Y-70839500D02*
X118263500Y-68199000D01*
X116900000Y-72617500D02*
X118009500Y-72617500D01*
X118009500Y-72617500D02*
X119988500Y-70638500D01*
X119988500Y-70638500D02*
X119988500Y-68199000D01*
X116900000Y-71347500D02*
X117755500Y-71347500D01*
X134220000Y-78740000D02*
X135385000Y-77575000D01*
X135385000Y-77575000D02*
X136760000Y-77575000D01*
X132190000Y-76200000D02*
X133460000Y-76200000D01*
X133460000Y-76200000D02*
X134730000Y-74930000D01*
X134730000Y-74930000D02*
X134730000Y-69850000D01*
X134730000Y-69850000D02*
X138540000Y-69850000D01*
X138540000Y-69850000D02*
X138680000Y-69990000D01*
X138680000Y-69990000D02*
X138680000Y-72820000D01*
X132190000Y-73660000D02*
X133760000Y-73660000D01*
X133760000Y-73660000D02*
X134100000Y-73320000D01*
X139330000Y-69450000D02*
X139330000Y-72820000D01*
X134100000Y-73320000D02*
X134100000Y-69320000D01*
X134100000Y-69320000D02*
X134300000Y-69120000D01*
X134300000Y-69120000D02*
X139000000Y-69120000D01*
X139000000Y-69120000D02*
X139330000Y-69450000D01*
X132190000Y-71120000D02*
X133200000Y-71120000D01*
X133200000Y-71120000D02*
X133400000Y-70920000D01*
X133400000Y-70920000D02*
X133400000Y-69220000D01*
X133400000Y-69220000D02*
X134100000Y-68520000D01*
X134100000Y-68520000D02*
X139800000Y-68520000D01*
X139800000Y-68520000D02*
X139830000Y-68550000D01*
X139830000Y-68550000D02*
X139830000Y-72820000D01*
X132190000Y-68580000D02*
X132850000Y-67920000D01*
X132850000Y-67920000D02*
X140000000Y-67920000D01*
X140000000Y-67920000D02*
X140330000Y-68250000D01*
X140330000Y-68250000D02*
X140330000Y-72820000D01*
X149860000Y-66040000D02*
X143480000Y-66040000D01*
X143480000Y-66040000D02*
X140830000Y-68690000D01*
X140830000Y-68690000D02*
X140830000Y-72820000D01*
X149860000Y-68580000D02*
X148500000Y-67220000D01*
X148500000Y-67220000D02*
X143000000Y-67220000D01*
X143000000Y-67220000D02*
X141330000Y-68890000D01*
X141330000Y-68890000D02*
X141330000Y-72820000D01*
X149860000Y-71120000D02*
X148760000Y-70020000D01*
X148760000Y-70020000D02*
X148700000Y-70020000D01*
X148700000Y-70020000D02*
X148700000Y-69220000D01*
X148700000Y-69220000D02*
X147300000Y-67820000D01*
X147300000Y-67820000D02*
X143300000Y-67820000D01*
X143300000Y-67820000D02*
X141830000Y-69290000D01*
X141830000Y-69290000D02*
X141830000Y-72820000D01*
X149970000Y-73660000D02*
X148000000Y-71690000D01*
X147400000Y-68720000D02*
X143200000Y-68720000D01*
X143200000Y-68720000D02*
X142330000Y-69590000D01*
X148000000Y-71690000D02*
X148000000Y-69320000D01*
X148000000Y-69320000D02*
X147400000Y-68720000D01*
X142330000Y-69590000D02*
X142330000Y-72820000D01*
X149970000Y-76200000D02*
X147780000Y-76200000D01*
X147100000Y-69520000D02*
X143600000Y-69520000D01*
X147780000Y-76200000D02*
X147300000Y-75720000D01*
X147300000Y-75720000D02*
X147300000Y-69720000D01*
X147300000Y-69720000D02*
X147100000Y-69520000D01*
X143600000Y-69520000D02*
X142830000Y-70290000D01*
X142830000Y-70290000D02*
X142830000Y-72820000D01*
X149970000Y-78740000D02*
X147120000Y-78740000D01*
X146800000Y-70220000D02*
X143900000Y-70220000D01*
X147120000Y-78740000D02*
X146800000Y-78420000D01*
X146800000Y-78420000D02*
X146800000Y-70220000D01*
X143900000Y-70220000D02*
X143480000Y-70640000D01*
X143480000Y-70640000D02*
X143480000Y-72820000D01*
X144280000Y-72820000D02*
X144825000Y-72820000D01*
X144825000Y-72820000D02*
X145400000Y-73395000D01*
X137880000Y-72820000D02*
X137335000Y-72820000D01*
X137335000Y-72820000D02*
X136760000Y-73395000D01*
X154940000Y-66040000D02*
X155837500Y-66937500D01*
X114652500Y-71347500D02*
X116900000Y-71347500D01*
X158707500Y-66937500D02*
X158742500Y-66902500D01*
X155382500Y-68137500D02*
X158707500Y-68137500D01*
X115500000Y-74300000D02*
X115912500Y-73887500D01*
X111760000Y-63500000D02*
X113700000Y-63500000D01*
X161002500Y-78420000D02*
X155260000Y-78420000D01*
X113982500Y-71982500D02*
X116900000Y-71982500D01*
X113700000Y-63500000D02*
X116900000Y-66700000D01*
X123600000Y-70400000D02*
X123287500Y-70712500D01*
X176430000Y-66040000D02*
X173990000Y-66040000D01*
X115500000Y-75000000D02*
X115500000Y-74300000D01*
X122887500Y-73887500D02*
X122100000Y-73887500D01*
X111760000Y-71120000D02*
X113120000Y-71120000D01*
X127000000Y-78740000D02*
X123900000Y-75640000D01*
X127000000Y-66040000D02*
X123600000Y-69440000D01*
X111760000Y-73660000D02*
X113040000Y-73660000D01*
X111760000Y-68580000D02*
X114527500Y-71347500D01*
X154940000Y-68580000D02*
X155382500Y-68137500D01*
X136760000Y-73395000D02*
X136760000Y-77575000D01*
X165977500Y-66937500D02*
X165942500Y-66902500D01*
X132190000Y-78740000D02*
X134220000Y-78740000D01*
X180102500Y-67672500D02*
X177697500Y-67672500D01*
X177155000Y-71120000D02*
X180102500Y-68172500D01*
X189230000Y-63500000D02*
X188370000Y-63500000D01*
X111760000Y-81280000D02*
X114820000Y-81280000D01*
X124232500Y-71347500D02*
X122100000Y-71347500D01*
X187330000Y-66040000D02*
X189230000Y-66040000D01*
X126060000Y-73660000D02*
X125017500Y-72617500D01*
X123287500Y-70712500D02*
X122100000Y-70712500D01*
X136760000Y-77575000D02*
X145400000Y-77575000D01*
X186062500Y-67672500D02*
X186970000Y-68580000D01*
X169282500Y-66937500D02*
X165977500Y-66937500D01*
X125017500Y-72617500D02*
X122100000Y-72617500D01*
X111760000Y-66040000D02*
X115100000Y-69380000D01*
X177562500Y-67172500D02*
X176430000Y-66040000D01*
X113040000Y-73660000D02*
X114082500Y-72617500D01*
X111760000Y-76200000D02*
X114707500Y-73252500D01*
X155260000Y-78420000D02*
X154940000Y-78740000D01*
X127000000Y-68580000D02*
X124232500Y-71347500D01*
X113120000Y-71120000D02*
X113982500Y-71982500D01*
X123900000Y-74900000D02*
X122887500Y-73887500D01*
X114707500Y-73252500D02*
X116900000Y-73252500D01*
X124052500Y-73252500D02*
X122100000Y-73252500D01*
X170180000Y-68580000D02*
X169737500Y-68137500D01*
X176790000Y-68580000D02*
X173990000Y-68580000D01*
X127000000Y-71120000D02*
X125580000Y-71120000D01*
X127000000Y-73660000D02*
X126060000Y-73660000D01*
X173990000Y-68580000D02*
X174432500Y-68137500D01*
X124717500Y-71982500D02*
X122100000Y-71982500D01*
X177697500Y-67672500D02*
X176790000Y-68580000D01*
X115312500Y-70712500D02*
X116900000Y-70712500D01*
X111760000Y-78740000D02*
X115500000Y-75000000D01*
X182452500Y-67172500D02*
X186197500Y-67172500D01*
X182452500Y-67672500D02*
X186062500Y-67672500D01*
X114082500Y-72617500D02*
X116900000Y-72617500D01*
X169737500Y-68137500D02*
X165977500Y-68137500D01*
X115100000Y-70500000D02*
X115312500Y-70712500D01*
X173990000Y-71120000D02*
X177155000Y-71120000D01*
X154940000Y-81280000D02*
X155382500Y-80837500D01*
X114527500Y-71347500D02*
X114652500Y-71347500D01*
X180102500Y-67172500D02*
X177562500Y-67172500D01*
X122100000Y-78900000D02*
X122100000Y-74522500D01*
X114820000Y-81280000D02*
X116900000Y-79200000D01*
X124480000Y-81280000D02*
X122100000Y-78900000D01*
X158707500Y-68137500D02*
X158742500Y-68172500D01*
X123600000Y-69440000D02*
X123600000Y-70400000D01*
X185400000Y-71120000D02*
X182452500Y-68172500D01*
X127000000Y-81280000D02*
X124480000Y-81280000D01*
X170180000Y-81280000D02*
X169737500Y-80837500D01*
X186197500Y-67172500D02*
X187330000Y-66040000D01*
X188370000Y-63500000D02*
X185197500Y-66672500D01*
X170180000Y-66040000D02*
X169282500Y-66937500D01*
X125580000Y-71120000D02*
X124717500Y-71982500D01*
X123900000Y-75640000D02*
X123900000Y-74900000D01*
X122100000Y-66500000D02*
X122100000Y-70077500D01*
X189230000Y-71120000D02*
X185400000Y-71120000D01*
X186970000Y-68580000D02*
X189230000Y-68580000D01*
X145400000Y-73395000D02*
X145400000Y-77575000D01*
X115100000Y-69380000D02*
X115100000Y-70500000D01*
X116900000Y-79200000D02*
X116900000Y-74522500D01*
X185197500Y-66672500D02*
X182452500Y-66672500D01*
X165977500Y-68137500D02*
X165942500Y-68172500D01*
X125100000Y-63500000D02*
X122100000Y-66500000D01*
X115912500Y-73887500D02*
X116900000Y-73887500D01*
X189230000Y-68580000D02*
X188787500Y-68137500D01*
X155837500Y-66937500D02*
X158707500Y-66937500D01*
X116900000Y-66700000D02*
X116900000Y-70077500D01*
X127000000Y-63500000D02*
X125100000Y-63500000D01*
X127000000Y-76200000D02*
X124052500Y-73252500D01*
%TD*%
M02*
